G04*
G04 #@! TF.GenerationSoftware,Altium Limited,Altium Designer,19.0.5 (141)*
G04*
G04 Layer_Physical_Order=2*
G04 Layer_Color=16711680*
%FSLAX25Y25*%
%MOIN*%
G70*
G01*
G75*
%ADD45C,0.01000*%
G04:AMPARAMS|DCode=53|XSize=118.11mil|YSize=118.11mil|CornerRadius=29.53mil|HoleSize=0mil|Usage=FLASHONLY|Rotation=180.000|XOffset=0mil|YOffset=0mil|HoleType=Round|Shape=RoundedRectangle|*
%AMROUNDEDRECTD53*
21,1,0.11811,0.05906,0,0,180.0*
21,1,0.05906,0.11811,0,0,180.0*
1,1,0.05906,-0.02953,0.02953*
1,1,0.05906,0.02953,0.02953*
1,1,0.05906,0.02953,-0.02953*
1,1,0.05906,-0.02953,-0.02953*
%
%ADD53ROUNDEDRECTD53*%
%ADD54C,0.05000*%
%ADD55C,0.06693*%
%ADD56C,0.04000*%
G36*
X459054Y119268D02*
X313048D01*
X313048Y326298D01*
X459054D01*
X459054Y119268D01*
D02*
G37*
%LPC*%
G36*
X362105Y316926D02*
X325500D01*
X324993Y316825D01*
X324563Y316537D01*
X320063Y312037D01*
X319775Y311607D01*
X319674Y311100D01*
X319674Y179382D01*
X319588Y179346D01*
X319003Y178897D01*
X318554Y178312D01*
X318272Y177631D01*
X318176Y176900D01*
X318272Y176169D01*
X318554Y175488D01*
X319003Y174903D01*
X319588Y174454D01*
X320269Y174172D01*
X321000Y174076D01*
X321731Y174172D01*
X322412Y174454D01*
X322997Y174903D01*
X323446Y175488D01*
X323728Y176169D01*
X323824Y176900D01*
X323728Y177631D01*
X323446Y178312D01*
X322997Y178897D01*
X322412Y179346D01*
X322325Y179382D01*
X322325Y295387D01*
X323126Y295719D01*
X327381Y291463D01*
X327811Y291175D01*
X328319Y291074D01*
X378851D01*
X388193Y281732D01*
Y273268D01*
X374151Y259226D01*
X361582D01*
X361546Y259312D01*
X361097Y259897D01*
X360512Y260346D01*
X359831Y260628D01*
X359100Y260724D01*
X358369Y260628D01*
X357688Y260346D01*
X357103Y259897D01*
X356654Y259312D01*
X356372Y258631D01*
X356276Y257900D01*
X356372Y257169D01*
X356654Y256488D01*
X357103Y255903D01*
X357688Y255454D01*
X358369Y255172D01*
X359100Y255076D01*
X359831Y255172D01*
X360512Y255454D01*
X361097Y255903D01*
X361546Y256488D01*
X361582Y256575D01*
X374700D01*
X375207Y256675D01*
X375637Y256963D01*
X390456Y271782D01*
X390743Y272212D01*
X390844Y272719D01*
Y282281D01*
X390743Y282788D01*
X390456Y283218D01*
X380337Y293337D01*
X379907Y293625D01*
X379400Y293725D01*
X328868D01*
X325026Y297568D01*
Y309951D01*
X326265Y311191D01*
X326402Y311156D01*
X326716Y310251D01*
X326645Y310159D01*
X326227Y309150D01*
X326085Y308068D01*
X326227Y306985D01*
X326645Y305977D01*
X327310Y305111D01*
X327976Y304599D01*
X328045Y304328D01*
Y303934D01*
X327976Y303663D01*
X327310Y303151D01*
X326645Y302285D01*
X326227Y301276D01*
X326085Y300194D01*
X326227Y299112D01*
X326645Y298103D01*
X327310Y297237D01*
X328176Y296572D01*
X329185Y296154D01*
X330267Y296012D01*
X331349Y296154D01*
X332358Y296572D01*
X333224Y297237D01*
X333736Y297903D01*
X334007Y297972D01*
X334401D01*
X334672Y297903D01*
X335184Y297237D01*
X336050Y296572D01*
X337058Y296154D01*
X338141Y296012D01*
X339223Y296154D01*
X340232Y296572D01*
X341098Y297237D01*
X341610Y297903D01*
X341881Y297972D01*
X342275D01*
X342546Y297903D01*
X343058Y297237D01*
X343924Y296572D01*
X344933Y296154D01*
X346015Y296012D01*
X347097Y296154D01*
X348106Y296572D01*
X348972Y297237D01*
X349484Y297903D01*
X349755Y297972D01*
X350149D01*
X350420Y297903D01*
X350932Y297237D01*
X351798Y296572D01*
X352806Y296154D01*
X353889Y296012D01*
X354971Y296154D01*
X355980Y296572D01*
X356846Y297237D01*
X357358Y297903D01*
X357629Y297972D01*
X358023D01*
X358294Y297903D01*
X358806Y297237D01*
X359672Y296572D01*
X360681Y296154D01*
X361763Y296012D01*
X362845Y296154D01*
X363854Y296572D01*
X364720Y297237D01*
X365232Y297903D01*
X365503Y297972D01*
X365897D01*
X366168Y297903D01*
X366680Y297237D01*
X367546Y296572D01*
X368555Y296154D01*
X369637Y296012D01*
X370719Y296154D01*
X371728Y296572D01*
X372594Y297237D01*
X373106Y297903D01*
X373377Y297972D01*
X373771D01*
X374042Y297903D01*
X374554Y297237D01*
X375420Y296572D01*
X376429Y296154D01*
X377511Y296012D01*
X378593Y296154D01*
X379602Y296572D01*
X380468Y297237D01*
X380980Y297903D01*
X381251Y297972D01*
X381645D01*
X381916Y297903D01*
X382428Y297237D01*
X383294Y296572D01*
X384303Y296154D01*
X385385Y296012D01*
X386468Y296154D01*
X387476Y296572D01*
X388342Y297237D01*
X388854Y297903D01*
X389125Y297972D01*
X389519D01*
X389790Y297903D01*
X390302Y297237D01*
X391168Y296572D01*
X392177Y296154D01*
X393259Y296012D01*
X394341Y296154D01*
X395350Y296572D01*
X396216Y297237D01*
X396728Y297903D01*
X396999Y297972D01*
X397393D01*
X397664Y297903D01*
X398176Y297237D01*
X399042Y296572D01*
X400051Y296154D01*
X401133Y296012D01*
X402215Y296154D01*
X403224Y296572D01*
X404090Y297237D01*
X404602Y297903D01*
X404873Y297972D01*
X405267D01*
X405538Y297903D01*
X406050Y297237D01*
X406916Y296572D01*
X407925Y296154D01*
X409007Y296012D01*
X410089Y296154D01*
X411098Y296572D01*
X411964Y297237D01*
X412476Y297903D01*
X412747Y297972D01*
X413141D01*
X413412Y297903D01*
X413924Y297237D01*
X414790Y296572D01*
X415799Y296154D01*
X416881Y296012D01*
X417264Y296062D01*
X423763Y289563D01*
X424193Y289275D01*
X424700Y289175D01*
X435051D01*
X439875Y284351D01*
Y180249D01*
X390651Y131026D01*
X347782D01*
X347746Y131112D01*
X347297Y131697D01*
X346712Y132146D01*
X346031Y132428D01*
X345300Y132524D01*
X344569Y132428D01*
X343888Y132146D01*
X343303Y131697D01*
X342854Y131112D01*
X342572Y130431D01*
X342476Y129700D01*
X342572Y128969D01*
X342854Y128288D01*
X343303Y127703D01*
X343888Y127254D01*
X344569Y126972D01*
X345300Y126876D01*
X346031Y126972D01*
X346712Y127254D01*
X347297Y127703D01*
X347746Y128288D01*
X347782Y128375D01*
X391200D01*
X391707Y128475D01*
X392137Y128763D01*
X442137Y178763D01*
X442425Y179193D01*
X442525Y179700D01*
Y284900D01*
X442425Y285407D01*
X442137Y285837D01*
X436537Y291437D01*
X436107Y291725D01*
X435600Y291826D01*
X425249D01*
X419838Y297236D01*
X419838Y297237D01*
X420350Y297903D01*
X420621Y297972D01*
X421015D01*
X421286Y297903D01*
X421798Y297237D01*
X422664Y296572D01*
X423673Y296154D01*
X424755Y296012D01*
X425838Y296154D01*
X426846Y296572D01*
X427712Y297237D01*
X428224Y297903D01*
X428495Y297972D01*
X428889D01*
X429160Y297903D01*
X429672Y297237D01*
X430538Y296572D01*
X431547Y296154D01*
X432629Y296012D01*
X433711Y296154D01*
X434720Y296572D01*
X435586Y297237D01*
X436098Y297903D01*
X436369Y297972D01*
X436763D01*
X437034Y297903D01*
X437546Y297237D01*
X438412Y296572D01*
X439421Y296154D01*
X440503Y296012D01*
X441586Y296154D01*
X442594Y296572D01*
X443460Y297237D01*
X444125Y298103D01*
X444543Y299112D01*
X444685Y300194D01*
X444543Y301276D01*
X444125Y302285D01*
X443460Y303151D01*
X442794Y303663D01*
X442725Y303934D01*
Y304328D01*
X442794Y304599D01*
X443460Y305111D01*
X444125Y305977D01*
X444543Y306985D01*
X444685Y308068D01*
X444543Y309150D01*
X444125Y310159D01*
X443460Y311025D01*
X442594Y311690D01*
X441586Y312108D01*
X440503Y312250D01*
X439421Y312108D01*
X438412Y311690D01*
X437546Y311025D01*
X437034Y310359D01*
X436763Y310289D01*
X436369D01*
X436098Y310359D01*
X435586Y311025D01*
X434720Y311690D01*
X433711Y312108D01*
X432629Y312250D01*
X431547Y312108D01*
X430538Y311690D01*
X429672Y311025D01*
X429160Y310359D01*
X428889Y310289D01*
X428495D01*
X428224Y310359D01*
X427712Y311025D01*
X426846Y311690D01*
X425838Y312108D01*
X424755Y312250D01*
X423673Y312108D01*
X422664Y311690D01*
X421798Y311025D01*
X421286Y310359D01*
X421015Y310289D01*
X420621D01*
X420350Y310359D01*
X419838Y311025D01*
X418972Y311690D01*
X417964Y312108D01*
X416881Y312250D01*
X415799Y312108D01*
X414790Y311690D01*
X413924Y311025D01*
X413412Y310359D01*
X413141Y310289D01*
X412747D01*
X412476Y310359D01*
X411964Y311025D01*
X411098Y311690D01*
X410089Y312108D01*
X409007Y312250D01*
X407925Y312108D01*
X406916Y311690D01*
X406050Y311025D01*
X405538Y310359D01*
X405267Y310289D01*
X404873D01*
X404602Y310359D01*
X404090Y311025D01*
X403224Y311690D01*
X402215Y312108D01*
X401133Y312250D01*
X400051Y312108D01*
X399042Y311690D01*
X398176Y311025D01*
X397664Y310359D01*
X397393Y310289D01*
X396999D01*
X396728Y310359D01*
X396216Y311025D01*
X395350Y311690D01*
X394341Y312108D01*
X393259Y312250D01*
X392177Y312108D01*
X391168Y311690D01*
X390302Y311025D01*
X389790Y310359D01*
X389519Y310289D01*
X389125D01*
X388854Y310359D01*
X388342Y311025D01*
X387476Y311690D01*
X386468Y312108D01*
X385385Y312250D01*
X384303Y312108D01*
X383294Y311690D01*
X382428Y311025D01*
X381763Y310159D01*
X381345Y309150D01*
X381203Y308068D01*
X381345Y306985D01*
X381763Y305977D01*
X382428Y305111D01*
X383094Y304599D01*
X383163Y304328D01*
Y303934D01*
X383094Y303663D01*
X382428Y303151D01*
X381916Y302484D01*
X381645Y302415D01*
X381251D01*
X380980Y302484D01*
X380468Y303151D01*
X379602Y303816D01*
X378593Y304234D01*
X377511Y304376D01*
X376429Y304234D01*
X375420Y303816D01*
X374554Y303151D01*
X374042Y302484D01*
X373771Y302415D01*
X373377D01*
X373106Y302484D01*
X372594Y303151D01*
X371928Y303663D01*
X371859Y303934D01*
Y304328D01*
X371928Y304599D01*
X372594Y305111D01*
X373259Y305977D01*
X373677Y306985D01*
X373819Y308068D01*
X373677Y309150D01*
X373259Y310159D01*
X372594Y311025D01*
X371728Y311690D01*
X370719Y312108D01*
X369637Y312250D01*
X368555Y312108D01*
X367789Y311790D01*
X363042Y316537D01*
X362612Y316825D01*
X362105Y316926D01*
D02*
G37*
G36*
X406700Y278824D02*
X405969Y278728D01*
X405288Y278446D01*
X404703Y277997D01*
X404254Y277412D01*
X403972Y276731D01*
X403876Y276000D01*
X403972Y275269D01*
X404254Y274588D01*
X404703Y274003D01*
X405288Y273554D01*
X405969Y273272D01*
X406700Y273176D01*
X407431Y273272D01*
X408112Y273554D01*
X408697Y274003D01*
X409146Y274588D01*
X409182Y274675D01*
X411501D01*
X413908Y272268D01*
X413872Y272181D01*
X413776Y271450D01*
X413872Y270719D01*
X414154Y270038D01*
X414603Y269453D01*
X415188Y269004D01*
X415869Y268722D01*
X416600Y268626D01*
X417331Y268722D01*
X418012Y269004D01*
X418597Y269453D01*
X419046Y270038D01*
X419328Y270719D01*
X419424Y271450D01*
X419328Y272181D01*
X419046Y272862D01*
X418597Y273447D01*
X418012Y273896D01*
X417331Y274178D01*
X416600Y274274D01*
X415869Y274178D01*
X415782Y274142D01*
X412987Y276937D01*
X412557Y277225D01*
X412050Y277326D01*
X409182D01*
X409146Y277412D01*
X408697Y277997D01*
X408112Y278446D01*
X407431Y278728D01*
X406700Y278824D01*
D02*
G37*
G36*
X416300Y231324D02*
X415569Y231228D01*
X414888Y230946D01*
X414303Y230497D01*
X413854Y229912D01*
X413572Y229231D01*
X413476Y228500D01*
X413572Y227769D01*
X413608Y227682D01*
X404400Y218475D01*
X404113Y218045D01*
X404012Y217537D01*
Y155086D01*
X385451Y136525D01*
X340454D01*
X339947Y136425D01*
X339517Y136137D01*
X336963Y133583D01*
X336675Y133153D01*
X336575Y132646D01*
Y128000D01*
X336675Y127493D01*
X336963Y127063D01*
X341563Y122463D01*
X341993Y122175D01*
X342500Y122074D01*
X449232D01*
X449739Y122175D01*
X450169Y122463D01*
X453582Y125876D01*
X453669Y125840D01*
X454400Y125744D01*
X455131Y125840D01*
X455812Y126122D01*
X456397Y126571D01*
X456846Y127156D01*
X457128Y127837D01*
X457224Y128568D01*
X457128Y129299D01*
X456846Y129980D01*
X456397Y130565D01*
X455812Y131014D01*
X455131Y131296D01*
X454400Y131392D01*
X453669Y131296D01*
X452988Y131014D01*
X452403Y130565D01*
X451954Y129980D01*
X451672Y129299D01*
X451576Y128568D01*
X451672Y127837D01*
X451708Y127750D01*
X448683Y124725D01*
X343049D01*
X339226Y128549D01*
Y132097D01*
X341003Y133874D01*
X386000D01*
X386507Y133975D01*
X386937Y134263D01*
X406275Y153600D01*
X406562Y154030D01*
X406663Y154537D01*
Y216988D01*
X415482Y225808D01*
X415569Y225772D01*
X416300Y225676D01*
X417031Y225772D01*
X417712Y226054D01*
X418297Y226503D01*
X418746Y227088D01*
X419028Y227769D01*
X419124Y228500D01*
X419028Y229231D01*
X418746Y229912D01*
X418297Y230497D01*
X417712Y230946D01*
X417031Y231228D01*
X416300Y231324D01*
D02*
G37*
G36*
X343700Y221324D02*
X342969Y221228D01*
X342288Y220946D01*
X341703Y220497D01*
X341254Y219912D01*
X340972Y219231D01*
X340876Y218500D01*
X340972Y217769D01*
X341008Y217682D01*
X337363Y214037D01*
X337075Y213607D01*
X336975Y213100D01*
Y182473D01*
X337075Y181965D01*
X337363Y181535D01*
X341180Y177718D01*
X341145Y177631D01*
X341048Y176900D01*
X341145Y176169D01*
X341427Y175488D01*
X341876Y174903D01*
X342460Y174454D01*
X343142Y174172D01*
X343872Y174076D01*
X344603Y174172D01*
X345285Y174454D01*
X345869Y174903D01*
X346318Y175488D01*
X346600Y176169D01*
X346697Y176900D01*
X346600Y177631D01*
X346318Y178312D01*
X345869Y178897D01*
X345285Y179346D01*
X344603Y179628D01*
X343872Y179724D01*
X343142Y179628D01*
X343055Y179592D01*
X339626Y183021D01*
Y212551D01*
X342882Y215808D01*
X342969Y215772D01*
X343700Y215676D01*
X344431Y215772D01*
X345062Y216034D01*
X345259Y215954D01*
X345810Y215581D01*
X345748Y215112D01*
X345861Y214251D01*
X346194Y213448D01*
X346723Y212758D01*
X347412Y212229D01*
X348215Y211897D01*
X349076Y211784D01*
X349938Y211897D01*
X350741Y212229D01*
X351430Y212758D01*
X351959Y213448D01*
X352291Y214251D01*
X352405Y215112D01*
X352291Y215973D01*
X351959Y216776D01*
X351430Y217466D01*
X350741Y217995D01*
X349938Y218327D01*
X349076Y218441D01*
X348215Y218327D01*
X347412Y217995D01*
X347248Y217869D01*
X346498Y218302D01*
X346524Y218500D01*
X346428Y219231D01*
X346146Y219912D01*
X345697Y220497D01*
X345112Y220946D01*
X344431Y221228D01*
X343700Y221324D01*
D02*
G37*
G36*
X402609Y273292D02*
X401878Y273196D01*
X401197Y272914D01*
X400612Y272465D01*
X400164Y271880D01*
X399882Y271199D01*
X399785Y270468D01*
X399882Y269737D01*
X399917Y269650D01*
X381460Y251193D01*
X370291D01*
X370255Y251280D01*
X369806Y251865D01*
X369221Y252314D01*
X368540Y252596D01*
X367809Y252692D01*
X367078Y252596D01*
X366397Y252314D01*
X365812Y251865D01*
X365364Y251280D01*
X365082Y250599D01*
X364985Y249868D01*
X365082Y249137D01*
X365364Y248456D01*
X365812Y247871D01*
X365875Y247823D01*
Y213211D01*
X365273Y212684D01*
X365209Y212692D01*
X364478Y212596D01*
X363797Y212314D01*
X363212Y211865D01*
X362764Y211280D01*
X362481Y210599D01*
X362385Y209868D01*
X362481Y209137D01*
X362517Y209050D01*
X353167Y199700D01*
X352323Y199987D01*
X352291Y200225D01*
X351959Y201028D01*
X351430Y201718D01*
X350741Y202246D01*
X349938Y202579D01*
X349076Y202693D01*
X348215Y202579D01*
X347412Y202246D01*
X346723Y201718D01*
X346194Y201028D01*
X345861Y200225D01*
X345748Y199364D01*
X345861Y198503D01*
X346194Y197700D01*
X346723Y197010D01*
X347412Y196481D01*
X348215Y196149D01*
X348453Y196118D01*
X348740Y195273D01*
X346376Y192909D01*
X346331Y192928D01*
X345600Y193024D01*
X344869Y192928D01*
X344188Y192646D01*
X343603Y192197D01*
X343154Y191612D01*
X342872Y190931D01*
X342776Y190200D01*
X342872Y189469D01*
X343154Y188788D01*
X343603Y188203D01*
X344188Y187754D01*
X344869Y187472D01*
X345600Y187376D01*
X346331Y187472D01*
X347012Y187754D01*
X347597Y188203D01*
X348046Y188788D01*
X348328Y189469D01*
X348424Y190200D01*
X348328Y190931D01*
X348275Y191059D01*
X364392Y207176D01*
X364478Y207140D01*
X365209Y207044D01*
X365940Y207140D01*
X366621Y207422D01*
X367206Y207871D01*
X367655Y208456D01*
X367937Y209137D01*
X368034Y209868D01*
X367937Y210599D01*
X367860Y210786D01*
X368137Y211063D01*
X368425Y211493D01*
X368526Y212000D01*
X368526Y212000D01*
Y247138D01*
X368540Y247140D01*
X369221Y247422D01*
X369806Y247871D01*
X370255Y248456D01*
X370291Y248542D01*
X382009D01*
X382517Y248643D01*
X382947Y248931D01*
X401667Y267651D01*
X402521Y267605D01*
X424325Y245801D01*
Y234602D01*
X424262Y234555D01*
X423814Y233970D01*
X423531Y233289D01*
X423435Y232558D01*
X423531Y231827D01*
X423814Y231146D01*
X424262Y230561D01*
X424824Y230129D01*
Y216099D01*
X412668Y203943D01*
X412540Y203996D01*
X411809Y204092D01*
X411079Y203996D01*
X410397Y203714D01*
X409812Y203265D01*
X409364Y202680D01*
X409082Y201999D01*
X408985Y201268D01*
X409082Y200537D01*
X409122Y200439D01*
X409074Y200200D01*
X409175Y199693D01*
X409463Y199263D01*
X414523Y194203D01*
Y186503D01*
X414212Y186265D01*
X413764Y185680D01*
X413482Y184999D01*
X413385Y184268D01*
X413482Y183537D01*
X413764Y182856D01*
X414212Y182271D01*
X414797Y181822D01*
X415479Y181540D01*
X416209Y181444D01*
X416940Y181540D01*
X417622Y181822D01*
X418206Y182271D01*
X418655Y182856D01*
X418937Y183537D01*
X419034Y184268D01*
X418937Y184999D01*
X418655Y185680D01*
X418206Y186265D01*
X417622Y186714D01*
X417173Y186899D01*
Y194752D01*
X417073Y195259D01*
X416785Y195689D01*
X413769Y198705D01*
X413806Y199271D01*
X414255Y199856D01*
X414537Y200537D01*
X414634Y201268D01*
X414537Y201999D01*
X414519Y202044D01*
X427087Y214613D01*
X427375Y215043D01*
X427476Y215550D01*
Y230031D01*
X427671Y230112D01*
X428256Y230561D01*
X428705Y231146D01*
X428987Y231827D01*
X429084Y232558D01*
X428987Y233289D01*
X428705Y233970D01*
X428256Y234555D01*
X427671Y235003D01*
X426990Y235286D01*
X426975Y235288D01*
Y246350D01*
X426875Y246857D01*
X426587Y247287D01*
X404952Y268922D01*
X405055Y269056D01*
X405337Y269737D01*
X405434Y270468D01*
X405337Y271199D01*
X405055Y271880D01*
X404606Y272465D01*
X404022Y272914D01*
X403340Y273196D01*
X402609Y273292D01*
D02*
G37*
G36*
X445953Y150311D02*
X440047D01*
X438557Y150115D01*
X437168Y149539D01*
X435976Y148624D01*
X435061Y147432D01*
X434485Y146043D01*
X434289Y144553D01*
Y138647D01*
X434485Y137157D01*
X435061Y135768D01*
X435976Y134576D01*
X437168Y133661D01*
X438557Y133086D01*
X440047Y132889D01*
X445953D01*
X447443Y133086D01*
X448832Y133661D01*
X450024Y134576D01*
X450939Y135768D01*
X451514Y137157D01*
X451711Y138647D01*
Y144553D01*
X451514Y146043D01*
X450939Y147432D01*
X450024Y148624D01*
X448832Y149539D01*
X447443Y150115D01*
X445953Y150311D01*
D02*
G37*
%LPD*%
D45*
X405337Y217537D02*
X416300Y228500D01*
X405337Y154537D02*
Y217537D01*
X386000Y135200D02*
X405337Y154537D01*
X340454Y135200D02*
X386000D01*
X337900Y132646D02*
X340454Y135200D01*
X337900Y128000D02*
Y132646D01*
Y128000D02*
X342500Y123400D01*
X449232D01*
X454400Y128568D01*
X382009Y249868D02*
X402071Y269929D01*
X367809Y249868D02*
X382009D01*
X338300Y182473D02*
X343872Y176900D01*
X338300Y182473D02*
Y213100D01*
X343700Y218500D01*
X402071Y269929D02*
X425650Y246350D01*
X401532Y270468D02*
X402071Y269929D01*
X425650Y232090D02*
Y246350D01*
X411200Y200600D02*
X426150Y215550D01*
X410400Y200200D02*
X415848Y194752D01*
X367200Y212000D02*
Y249868D01*
X364600Y209400D02*
X367200Y212000D01*
X345542Y190200D02*
X365209Y209868D01*
X345542Y190200D02*
X345600D01*
X321000Y177800D02*
X321000Y311100D01*
X325500Y315600D01*
X362105D01*
X369637Y308068D01*
X402071Y269929D02*
X402609Y270468D01*
X345300Y129700D02*
X391200D01*
X441200Y179700D01*
Y284900D01*
X435600Y290500D02*
X441200Y284900D01*
X424700Y290500D02*
X435600D01*
X416881Y298319D02*
X424700Y290500D01*
X416881Y298319D02*
Y300194D01*
X323700Y297019D02*
Y310500D01*
Y297019D02*
X328319Y292400D01*
X379400D01*
X389519Y282281D01*
Y272719D02*
Y282281D01*
X374700Y257900D02*
X389519Y272719D01*
X359100Y257900D02*
X374700D01*
X402071Y269929D02*
X402071D01*
X323700Y310500D02*
X326200Y313000D01*
X357729D01*
X361763Y308966D01*
Y308068D02*
Y308966D01*
X412050Y276000D02*
X416600Y271450D01*
X406700Y276000D02*
X412050D01*
X426150Y215550D02*
Y232090D01*
X415848Y185924D02*
Y194752D01*
D53*
X443000Y141600D02*
D03*
D54*
X349076Y215112D02*
D03*
Y207238D02*
D03*
Y199364D02*
D03*
D55*
X330267Y300194D02*
D03*
Y308068D02*
D03*
X338141Y300194D02*
D03*
Y308068D02*
D03*
X346015Y300194D02*
D03*
Y308068D02*
D03*
X353889Y300194D02*
D03*
Y308068D02*
D03*
X361763Y300194D02*
D03*
Y308068D02*
D03*
X369637Y300194D02*
D03*
Y308068D02*
D03*
X377511Y300194D02*
D03*
Y308068D02*
D03*
X385385Y300194D02*
D03*
Y308068D02*
D03*
X393259Y300194D02*
D03*
Y308068D02*
D03*
X401133Y300194D02*
D03*
Y308068D02*
D03*
X409007Y300194D02*
D03*
Y308068D02*
D03*
X416881Y300194D02*
D03*
Y308068D02*
D03*
X424755Y300194D02*
D03*
Y308068D02*
D03*
X432629Y300194D02*
D03*
Y308068D02*
D03*
X440503Y300194D02*
D03*
Y308068D02*
D03*
D56*
X420800Y148200D02*
D03*
X397700Y176500D02*
D03*
X414000D02*
D03*
X454400Y128568D02*
D03*
X416300Y228500D02*
D03*
X413000Y249868D02*
D03*
X440503Y291600D02*
D03*
X316200Y176900D02*
D03*
X354200D02*
D03*
X328400Y196300D02*
D03*
X360900Y148200D02*
D03*
X372300D02*
D03*
X447000Y184268D02*
D03*
X436100D02*
D03*
X343872Y176900D02*
D03*
X345600Y190200D02*
D03*
X343700Y218500D02*
D03*
X321000Y176900D02*
D03*
X345300Y129700D02*
D03*
X359100Y257900D02*
D03*
X416600Y271450D02*
D03*
X406700Y276000D02*
D03*
X434700Y284300D02*
D03*
X425800Y256200D02*
D03*
X426100Y207000D02*
D03*
X343200Y205200D02*
D03*
X328400D02*
D03*
X355400Y321300D02*
D03*
X366900D02*
D03*
X379100D02*
D03*
X384058Y273300D02*
D03*
X371147D02*
D03*
X358237D02*
D03*
X345326D02*
D03*
X397909Y241500D02*
D03*
X373727D02*
D03*
Y214600D02*
D03*
X397909D02*
D03*
X365209Y209868D02*
D03*
X416209Y184268D02*
D03*
X367809Y249868D02*
D03*
X402609Y270468D02*
D03*
X426259Y232558D02*
D03*
X411809Y201268D02*
D03*
M02*
