M48
;Layer_Color=9474304
;FILE_FORMAT=2:5
INCH,LZ
;TYPE=PLATED
T1F00S00C0.02000
T2F00S00C0.03150
T3F00S00C0.03543
%
T01
X03453Y01297
X03609Y01482
X03723
X04208
X04544Y0128568
X0447Y0184268
X04361
X0416209
X0414Y01765
X03977
X0397909Y02146
X0373727
X0365209Y0209868
X03432Y02052
X03437Y02185
X03284Y02052
Y01963
X03456Y01902
X0343872Y01769
X03542
X0321
X03162
X0411809Y0201268
X04261Y0207
X0426259Y0232558
X04163Y02285
X0413Y0249868
X04258Y02562
X04166Y027145
X04067Y0276
X0402609Y0270468
X0384058Y02733
X0371147
X0358237
X0345326
X03591Y02579
X0367809Y0249868
X0373727Y02415
X0397909
X04347Y02843
X0440503Y02916
X03791Y03213
X03669
X03554
T02
X0349076Y0199364
Y0207238
Y0215112
T03
X0443Y01416
X0440503Y0300194
X0432629
X0424755
X0416881
X0409007
X0401133
X0393259
X0385385
X0377511
X0369637
X0361763
X0353889
X0346015
X0338141
X0330267
Y0308068
X0338141
X0346015
X0353889
X0361763
X0369637
X0377511
X0385385
X0393259
X0401133
X0409007
X0416881
X0424755
X0432629
X0440503
M30
