G04*
G04 #@! TF.GenerationSoftware,Altium Limited,Altium Designer,19.0.5 (141)*
G04*
G04 Layer_Physical_Order=1*
G04 Layer_Color=255*
%FSLAX25Y25*%
%MOIN*%
G70*
G01*
G75*
%ADD13C,0.00600*%
%ADD15R,0.03800X0.03100*%
%ADD16R,0.03937X0.03937*%
%ADD17R,0.01579X0.02768*%
%ADD18R,0.01587X0.02760*%
G04:AMPARAMS|DCode=19|XSize=31mil|YSize=38mil|CornerRadius=7.75mil|HoleSize=0mil|Usage=FLASHONLY|Rotation=270.000|XOffset=0mil|YOffset=0mil|HoleType=Round|Shape=RoundedRectangle|*
%AMROUNDEDRECTD19*
21,1,0.03100,0.02250,0,0,270.0*
21,1,0.01550,0.03800,0,0,270.0*
1,1,0.01550,-0.01125,-0.00775*
1,1,0.01550,-0.01125,0.00775*
1,1,0.01550,0.01125,0.00775*
1,1,0.01550,0.01125,-0.00775*
%
%ADD19ROUNDEDRECTD19*%
%ADD20R,0.23622X0.15748*%
%ADD21R,0.06299X0.10630*%
%ADD22R,0.03100X0.03800*%
%ADD23R,0.02362X0.03937*%
G04:AMPARAMS|DCode=24|XSize=59.06mil|YSize=59.06mil|CornerRadius=14.76mil|HoleSize=0mil|Usage=FLASHONLY|Rotation=180.000|XOffset=0mil|YOffset=0mil|HoleType=Round|Shape=RoundedRectangle|*
%AMROUNDEDRECTD24*
21,1,0.05906,0.02953,0,0,180.0*
21,1,0.02953,0.05906,0,0,180.0*
1,1,0.02953,-0.01476,0.01476*
1,1,0.02953,0.01476,0.01476*
1,1,0.02953,0.01476,-0.01476*
1,1,0.02953,-0.01476,-0.01476*
%
%ADD24ROUNDEDRECTD24*%
G04:AMPARAMS|DCode=25|XSize=94.49mil|YSize=59.06mil|CornerRadius=14.76mil|HoleSize=0mil|Usage=FLASHONLY|Rotation=90.000|XOffset=0mil|YOffset=0mil|HoleType=Round|Shape=RoundedRectangle|*
%AMROUNDEDRECTD25*
21,1,0.09449,0.02953,0,0,90.0*
21,1,0.06496,0.05906,0,0,90.0*
1,1,0.02953,0.01476,0.03248*
1,1,0.02953,0.01476,-0.03248*
1,1,0.02953,-0.01476,-0.03248*
1,1,0.02953,-0.01476,0.03248*
%
%ADD25ROUNDEDRECTD25*%
%ADD26R,0.01100X0.05800*%
%ADD27R,0.05800X0.01100*%
%ADD45C,0.01000*%
%ADD46C,0.02000*%
%ADD47C,0.01500*%
%ADD48C,0.00900*%
%ADD49C,0.03937*%
%ADD50C,0.01200*%
%ADD51C,0.00800*%
%ADD52R,0.07700X0.15932*%
G04:AMPARAMS|DCode=53|XSize=118.11mil|YSize=118.11mil|CornerRadius=29.53mil|HoleSize=0mil|Usage=FLASHONLY|Rotation=180.000|XOffset=0mil|YOffset=0mil|HoleType=Round|Shape=RoundedRectangle|*
%AMROUNDEDRECTD53*
21,1,0.11811,0.05906,0,0,180.0*
21,1,0.05906,0.11811,0,0,180.0*
1,1,0.05906,-0.02953,0.02953*
1,1,0.05906,0.02953,0.02953*
1,1,0.05906,0.02953,-0.02953*
1,1,0.05906,-0.02953,-0.02953*
%
%ADD53ROUNDEDRECTD53*%
%ADD54C,0.05000*%
%ADD55C,0.06693*%
%ADD56C,0.04000*%
G36*
X382962Y312585D02*
X383365D01*
X383524Y311785D01*
X383294Y311690D01*
X382428Y311025D01*
X381763Y310159D01*
X381345Y309150D01*
X381203Y308068D01*
X381345Y306985D01*
X381763Y305977D01*
X382428Y305111D01*
X383094Y304599D01*
X383163Y304328D01*
Y303934D01*
X383094Y303663D01*
X382428Y303151D01*
X381916Y302484D01*
X381645Y302415D01*
X381251D01*
X380980Y302484D01*
X380468Y303151D01*
X379602Y303816D01*
X378593Y304234D01*
X377511Y304376D01*
X376429Y304234D01*
X375420Y303816D01*
X374554Y303151D01*
X374042Y302484D01*
X373771Y302415D01*
X373377D01*
X373106Y302484D01*
X372594Y303151D01*
X371928Y303663D01*
X371859Y303934D01*
Y304328D01*
X371928Y304599D01*
X372594Y305111D01*
X373259Y305977D01*
X373677Y306985D01*
X373819Y308068D01*
X373677Y309150D01*
X373259Y310159D01*
X372594Y311025D01*
X371728Y311690D01*
X370719Y312108D01*
X369637Y312250D01*
X368555Y312108D01*
X367546Y311690D01*
X366680Y311025D01*
X366168Y310359D01*
X365897Y310289D01*
X365503D01*
X365232Y310359D01*
X364720Y311025D01*
X363854Y311690D01*
X362845Y312108D01*
X361763Y312250D01*
X360681Y312108D01*
X359672Y311690D01*
X358806Y311025D01*
X358294Y310359D01*
X358023Y310289D01*
X357629D01*
X357358Y310359D01*
X356846Y311025D01*
X355980Y311690D01*
X354971Y312108D01*
X353889Y312250D01*
X352806Y312108D01*
X352041Y311790D01*
X345326Y318505D01*
X344896Y318793D01*
X344389Y318893D01*
X324809D01*
X324302Y318793D01*
X323872Y318505D01*
X317772Y312405D01*
X317485Y311975D01*
X317384Y311468D01*
Y239468D01*
X317485Y238961D01*
X317772Y238531D01*
X335459Y220844D01*
X335828Y220201D01*
X335828D01*
X335828Y220201D01*
Y214664D01*
X339791D01*
Y220084D01*
X340384Y220699D01*
X340992Y220665D01*
X341316Y219993D01*
X341254Y219912D01*
X340972Y219231D01*
X340876Y218500D01*
X340972Y217769D01*
X341254Y217088D01*
X341703Y216503D01*
X342288Y216054D01*
X342969Y215772D01*
X343700Y215676D01*
X344431Y215772D01*
X345062Y216034D01*
X345259Y215954D01*
X345810Y215581D01*
X345748Y215112D01*
X345861Y214251D01*
X346194Y213448D01*
X346723Y212758D01*
X347412Y212229D01*
X348215Y211897D01*
X349076Y211784D01*
X349938Y211897D01*
X350741Y212229D01*
X351430Y212758D01*
X351459Y212797D01*
X352259Y212525D01*
Y212173D01*
X356959D01*
X357422Y211564D01*
Y210204D01*
X360598D01*
X361871Y208931D01*
X362301Y208643D01*
X362720Y208560D01*
X362764Y208456D01*
X363212Y207871D01*
X363797Y207422D01*
X364478Y207140D01*
X365209Y207044D01*
X365940Y207140D01*
X366621Y207422D01*
X367206Y207871D01*
X367655Y208456D01*
X367937Y209137D01*
X368034Y209868D01*
X367937Y210599D01*
X367655Y211280D01*
X367206Y211865D01*
X366895Y212104D01*
X367166Y212904D01*
X368981D01*
Y216841D01*
Y220778D01*
Y224715D01*
Y228652D01*
Y232589D01*
Y236526D01*
Y240463D01*
Y245132D01*
X364372D01*
Y248759D01*
X365172Y248918D01*
X365364Y248456D01*
X365812Y247871D01*
X366397Y247422D01*
X367078Y247140D01*
X367809Y247044D01*
X368540Y247140D01*
X369221Y247422D01*
X369806Y247871D01*
X370255Y248456D01*
X370537Y249137D01*
X371317Y249009D01*
Y247468D01*
X371341D01*
Y246068D01*
X371442Y245561D01*
X371730Y245131D01*
X372160Y244843D01*
X372667Y244742D01*
X398257D01*
X398765Y244843D01*
X399195Y245131D01*
X399482Y245561D01*
X399583Y246068D01*
Y247468D01*
X399607D01*
Y254868D01*
X399583D01*
Y256018D01*
X402308D01*
Y259943D01*
X406091D01*
X406599Y260043D01*
X407029Y260331D01*
X413347Y266649D01*
X413634Y267079D01*
X413735Y267586D01*
Y269270D01*
X414535Y269542D01*
X414603Y269453D01*
X415188Y269004D01*
X415869Y268722D01*
X416600Y268626D01*
X417331Y268722D01*
X417370Y268738D01*
X418135Y268750D01*
X422150D01*
Y274150D01*
X421129D01*
X421017Y274943D01*
X421447Y275231D01*
X423584Y277368D01*
X425205D01*
Y277368D01*
X425359D01*
Y277368D01*
X430059D01*
Y282768D01*
X425359D01*
Y282768D01*
X425205D01*
Y282768D01*
X421150D01*
X420505Y282768D01*
Y282768D01*
X420350D01*
Y282768D01*
X415650D01*
Y282768D01*
X415496D01*
Y282768D01*
X411442D01*
X410796Y282768D01*
Y282768D01*
X410641D01*
Y282768D01*
X405941D01*
Y282768D01*
X405787D01*
Y282768D01*
X401087D01*
Y282768D01*
X400914D01*
Y282768D01*
X399778D01*
X399741Y282951D01*
X399465Y283365D01*
X398710Y284119D01*
X398297Y284395D01*
X397809Y284492D01*
X391750D01*
X391484Y284759D01*
Y288040D01*
X393137Y289693D01*
X399781D01*
X400269Y289791D01*
X400682Y290067D01*
X407108Y296492D01*
X407925Y296154D01*
X409007Y296012D01*
X410089Y296154D01*
X410261Y296225D01*
X410714Y295547D01*
X407710Y292543D01*
X406023D01*
X405516Y292442D01*
X405086Y292155D01*
X402500Y289569D01*
X402212Y289139D01*
X402198Y289068D01*
X401087D01*
Y283668D01*
X405787D01*
Y289068D01*
X405787Y289068D01*
X405787D01*
X406300Y289620D01*
X406572Y289893D01*
X408259D01*
X408767Y289993D01*
X409197Y290281D01*
X415283Y296368D01*
X415799Y296154D01*
X416881Y296012D01*
X417964Y296154D01*
X418520Y296385D01*
X418974Y295707D01*
X412335Y289068D01*
X410796D01*
Y283668D01*
X415496D01*
Y288480D01*
X423317Y296301D01*
X423673Y296154D01*
X424755Y296012D01*
X425838Y296154D01*
X426846Y296572D01*
X427712Y297237D01*
X428224Y297903D01*
X428495Y297972D01*
X428889D01*
X429160Y297903D01*
X429672Y297237D01*
X429674Y297207D01*
X421918Y289451D01*
X421662Y289068D01*
X420505D01*
Y283668D01*
X425205D01*
Y288989D01*
X432274Y296058D01*
X432629Y296012D01*
X433711Y296154D01*
X434720Y296572D01*
X435586Y297237D01*
X436098Y297903D01*
X436369Y297972D01*
X436763D01*
X437034Y297903D01*
X437546Y297237D01*
X438412Y296572D01*
X439421Y296154D01*
X440503Y296012D01*
X441586Y296154D01*
X441908Y296288D01*
X442657Y295732D01*
Y256343D01*
X441499Y255185D01*
X437459D01*
Y250485D01*
X442859D01*
Y252796D01*
X443725Y253662D01*
X444464Y253356D01*
Y248797D01*
X441585Y245918D01*
X437459D01*
Y241218D01*
X442859D01*
Y243443D01*
X445532Y246115D01*
X446271Y245809D01*
Y241331D01*
X441591Y236651D01*
X437459D01*
Y231951D01*
X442859D01*
Y233483D01*
X443067Y233794D01*
X443168Y234301D01*
Y234479D01*
X447338Y238649D01*
X448077Y238343D01*
Y233710D01*
X441752Y227385D01*
X437459D01*
Y222685D01*
X442859D01*
Y224743D01*
X449145Y231029D01*
X449884Y230723D01*
Y226417D01*
X441585Y218118D01*
X437459D01*
Y213418D01*
X441640D01*
X441946Y212679D01*
X427560Y198293D01*
X413847D01*
X413575Y199093D01*
X413806Y199271D01*
X414255Y199856D01*
X414537Y200537D01*
X414634Y201268D01*
X414537Y201999D01*
X414255Y202680D01*
X413806Y203265D01*
X413222Y203714D01*
X412540Y203996D01*
X411809Y204092D01*
X411706Y204079D01*
X410906Y204750D01*
Y212904D01*
X413277D01*
Y210478D01*
X413378Y209971D01*
X413666Y209541D01*
X416144Y207063D01*
X416574Y206775D01*
X417081Y206675D01*
X417732D01*
Y205231D01*
X423269D01*
Y209229D01*
X428268D01*
Y214766D01*
X423269D01*
Y217224D01*
X428268D01*
Y222761D01*
X422750D01*
Y227065D01*
X419602D01*
X419086Y227698D01*
X419041Y227865D01*
X419124Y228500D01*
X419028Y229231D01*
X418803Y229774D01*
X418991Y230237D01*
X419246Y230574D01*
X420882D01*
X423394Y228063D01*
X423824Y227775D01*
X424332Y227675D01*
X427676D01*
X429275Y226077D01*
Y222509D01*
X429375Y222002D01*
X429663Y221572D01*
X431159Y220075D01*
Y218051D01*
Y213418D01*
X436559D01*
Y218051D01*
Y222685D01*
Y227318D01*
Y231951D01*
Y236585D01*
Y241218D01*
Y245851D01*
Y250485D01*
Y255118D01*
Y259818D01*
X431159D01*
Y255118D01*
Y253218D01*
X429483Y251542D01*
X429196Y251112D01*
X429095Y250604D01*
Y248628D01*
X427560Y247093D01*
X406269D01*
X403545Y249818D01*
Y254868D01*
X400844D01*
Y247468D01*
X402145D01*
X404783Y244831D01*
X405213Y244543D01*
X405720Y244443D01*
X405881D01*
Y240463D01*
Y236526D01*
X413281D01*
Y236551D01*
X421359D01*
Y233225D01*
X415926D01*
X414275Y234876D01*
X413845Y235164D01*
X413338Y235265D01*
X413281D01*
Y235289D01*
X405881D01*
Y232589D01*
Y228652D01*
Y224715D01*
Y220778D01*
Y216841D01*
Y212904D01*
X408255D01*
Y203418D01*
X407051D01*
X404127Y206341D01*
X403697Y206628D01*
X403545Y206659D01*
Y210568D01*
X400844D01*
Y203168D01*
X403544D01*
X403545Y203168D01*
Y203168D01*
X404084Y202635D01*
X405176Y201543D01*
X405176Y198718D01*
X404552Y198293D01*
X398381D01*
X397614Y199060D01*
Y203168D01*
X399607D01*
Y210568D01*
X394939D01*
Y203168D01*
X394964D01*
Y199193D01*
X394266Y198894D01*
X393677Y199370D01*
Y203168D01*
X393702D01*
Y210568D01*
X387772D01*
Y211468D01*
X387671Y211975D01*
X387384Y212405D01*
X386954Y212692D01*
X386446Y212793D01*
X378572D01*
X378065Y212692D01*
X377635Y212405D01*
X377348Y211975D01*
X377247Y211468D01*
Y210568D01*
X371317D01*
Y203250D01*
X366660Y198593D01*
X352910D01*
X352383Y199195D01*
X352405Y199364D01*
X352291Y200225D01*
X351959Y201028D01*
X351430Y201718D01*
X350741Y202246D01*
X349938Y202579D01*
X349076Y202693D01*
X348215Y202579D01*
X347412Y202246D01*
X346723Y201718D01*
X346194Y201028D01*
X345861Y200225D01*
X345748Y199364D01*
X345861Y198503D01*
X346194Y197700D01*
X346723Y197010D01*
X347006Y196793D01*
X346734Y195993D01*
X338605D01*
X336419Y198179D01*
Y201355D01*
X331719D01*
Y195955D01*
X334895D01*
X337119Y193731D01*
X337549Y193443D01*
X338056Y193342D01*
X343839D01*
X343972Y193076D01*
X344053Y192543D01*
X343603Y192197D01*
X343154Y191612D01*
X342872Y190931D01*
X342776Y190200D01*
X342872Y189469D01*
X343154Y188788D01*
X343587Y188223D01*
X338599Y183235D01*
X325260D01*
X322538Y185958D01*
Y196115D01*
X320635D01*
Y208505D01*
X322050D01*
X322535Y207905D01*
Y206168D01*
X321828D01*
Y200631D01*
X325791D01*
Y206168D01*
X325084D01*
Y218818D01*
X328009D01*
Y223518D01*
X325084D01*
Y226512D01*
X325135Y226768D01*
X325034Y227275D01*
X324747Y227705D01*
X316435Y236017D01*
Y324174D01*
X382962D01*
Y312585D01*
D02*
G37*
G36*
X384303Y296154D02*
X385385Y296012D01*
X386175Y296116D01*
X386549Y295358D01*
X381312Y290122D01*
X381025Y289692D01*
X380924Y289184D01*
Y288701D01*
X380269D01*
Y283164D01*
X384231D01*
Y288701D01*
X384231D01*
X384058Y289118D01*
X386259Y291320D01*
X386945Y290874D01*
X386884Y290568D01*
Y283268D01*
X386985Y282761D01*
X387272Y282331D01*
X390472Y279131D01*
X390902Y278843D01*
X391359Y278752D01*
Y277368D01*
X391378D01*
Y276376D01*
X390972Y276105D01*
X387478Y272611D01*
X387190Y272181D01*
X387089Y271673D01*
Y263722D01*
X386290Y263295D01*
X386074Y263439D01*
X385186Y263615D01*
X382233D01*
X381345Y263439D01*
X380698Y263006D01*
X380261Y263127D01*
X379898Y263337D01*
Y264455D01*
X380859D01*
Y269855D01*
X376159D01*
Y266938D01*
X375420Y266632D01*
X373960Y268092D01*
X373530Y268380D01*
X373022Y268480D01*
X367574D01*
Y269855D01*
X362874D01*
Y264455D01*
X367574D01*
Y265829D01*
X372473D01*
X373727Y264576D01*
X373421Y263837D01*
X370585D01*
Y259137D01*
X369793Y259118D01*
X368617D01*
Y254418D01*
X369354D01*
X369685Y253618D01*
X368627Y252560D01*
X368540Y252596D01*
X367809Y252692D01*
X367078Y252596D01*
X366578Y252388D01*
X366032Y252628D01*
X365778Y252847D01*
Y253369D01*
X365655Y253983D01*
X365307Y254504D01*
X364786Y254852D01*
X364172Y254975D01*
X361922D01*
X361307Y254852D01*
X360786Y254504D01*
X360438Y253983D01*
X360316Y253369D01*
Y251819D01*
X360438Y251204D01*
X360786Y250683D01*
X361307Y250335D01*
X361721Y250253D01*
Y245873D01*
X361581Y245132D01*
X360781Y244981D01*
X360709Y245087D01*
X356384Y249413D01*
X356715Y250213D01*
X357872D01*
X358486Y250335D01*
X359007Y250683D01*
X359355Y251204D01*
X359478Y251819D01*
Y253369D01*
X359355Y253983D01*
X359145Y254299D01*
X359376Y254988D01*
X359481Y255126D01*
X359831Y255172D01*
X360512Y255454D01*
X361097Y255903D01*
X361546Y256488D01*
X361828Y257169D01*
X361924Y257900D01*
X361828Y258631D01*
X361546Y259312D01*
X361097Y259897D01*
X360512Y260346D01*
X359831Y260628D01*
X359100Y260724D01*
X358369Y260628D01*
X357688Y260346D01*
X357103Y259897D01*
X356654Y259312D01*
X356372Y258631D01*
X356276Y257900D01*
X356372Y257169D01*
X356408Y257082D01*
X355810Y256484D01*
X355522Y256054D01*
X355421Y255547D01*
Y254935D01*
X355007Y254852D01*
X354486Y254504D01*
X354138Y253983D01*
X354065Y253614D01*
X353265Y253693D01*
Y264455D01*
X354289D01*
Y269855D01*
X349589D01*
Y264455D01*
X350614D01*
Y253406D01*
X349875Y253100D01*
X339980Y262995D01*
Y264455D01*
X341004D01*
Y269855D01*
X337203D01*
X336941Y270305D01*
X337203Y270755D01*
X341004D01*
Y276155D01*
X340635D01*
Y280827D01*
X337035D01*
X336673Y280827D01*
X336235Y281445D01*
Y283619D01*
X339674Y287058D01*
X340413Y286752D01*
Y283164D01*
X344375D01*
Y284607D01*
X349023D01*
X349530Y284707D01*
X349960Y284995D01*
X352898Y287933D01*
X353698Y287601D01*
Y283164D01*
X357661D01*
Y284607D01*
X361074D01*
X361581Y284707D01*
X362011Y284995D01*
X369058Y292042D01*
X370685D01*
X371192Y292143D01*
X371622Y292431D01*
X375663Y296471D01*
X376429Y296154D01*
X377511Y296012D01*
X378301Y296116D01*
X378675Y295358D01*
X371685Y288368D01*
X370946Y288674D01*
Y288701D01*
X366984D01*
Y283164D01*
X370946D01*
Y284607D01*
X371123D01*
X371630Y284707D01*
X372060Y284995D01*
X383537Y296471D01*
X384303Y296154D01*
D02*
G37*
G36*
X313885Y234961D02*
X314172Y234531D01*
X321787Y226916D01*
X321456Y226115D01*
X314709D01*
X314397Y226053D01*
X314133Y225877D01*
X313956Y225612D01*
X313894Y225300D01*
Y209368D01*
X313956Y209056D01*
X314133Y208791D01*
X314397Y208614D01*
X314709Y208552D01*
X316965D01*
Y196115D01*
X314639D01*
Y183885D01*
X319420D01*
X323202Y180102D01*
X323798Y179704D01*
X324500Y179565D01*
X339359D01*
X340062Y179704D01*
X340657Y180102D01*
X346898Y186343D01*
X347296Y186938D01*
X347435Y187641D01*
Y188079D01*
X347597Y188203D01*
X348046Y188788D01*
X348328Y189469D01*
X348424Y190200D01*
X348328Y190931D01*
X348046Y191612D01*
X347597Y192197D01*
X347147Y192543D01*
X347228Y193076D01*
X347361Y193342D01*
X366364D01*
X366670Y192603D01*
X363572Y189505D01*
X363285Y189075D01*
X363184Y188568D01*
Y133723D01*
X363285Y133216D01*
X363572Y132786D01*
X370352Y126006D01*
X370782Y125719D01*
X371289Y125618D01*
X373290D01*
Y123696D01*
X373467Y122807D01*
X373970Y122054D01*
X374723Y121551D01*
X375611Y121374D01*
X378564D01*
X379452Y121551D01*
X380205Y122054D01*
X380580Y122616D01*
X380787Y122668D01*
X381261D01*
X381469Y122616D01*
X381844Y122054D01*
X382597Y121551D01*
X383485Y121374D01*
X386438D01*
X387326Y121551D01*
X388079Y122054D01*
X388454Y122616D01*
X388661Y122668D01*
X389135D01*
X389343Y122616D01*
X389718Y122054D01*
X390471Y121551D01*
X391359Y121374D01*
X394312D01*
X395200Y121551D01*
X395953Y122054D01*
X396328Y122616D01*
X396535Y122668D01*
X397009D01*
X397217Y122616D01*
X397592Y122054D01*
X398345Y121551D01*
X399233Y121374D01*
X402186D01*
X403074Y121551D01*
X403827Y122054D01*
X404202Y122616D01*
X404409Y122668D01*
X404883D01*
X405091Y122616D01*
X405466Y122054D01*
X406219Y121551D01*
X407107Y121374D01*
X410060D01*
X410948Y121551D01*
X411701Y122054D01*
X412076Y122616D01*
X412283Y122668D01*
X412757D01*
X412965Y122616D01*
X413340Y122054D01*
X414093Y121551D01*
X414981Y121374D01*
X417934D01*
X418822Y121551D01*
X419575Y122054D01*
X420078Y122807D01*
X420255Y123696D01*
Y130192D01*
X420078Y131080D01*
X419575Y131833D01*
X418822Y132336D01*
X417934Y132512D01*
X414981D01*
X414093Y132336D01*
X413340Y131833D01*
X412965Y131272D01*
X412757Y131219D01*
X412283D01*
X412076Y131272D01*
X411701Y131833D01*
X410948Y132336D01*
X410060Y132512D01*
X407107D01*
X406219Y132336D01*
X405466Y131833D01*
X405091Y131272D01*
X404883Y131219D01*
X404409D01*
X404202Y131272D01*
X403827Y131833D01*
X403074Y132336D01*
X402186Y132512D01*
X399233D01*
X398345Y132336D01*
X397592Y131833D01*
X397217Y131272D01*
X397009Y131219D01*
X396535D01*
X396328Y131272D01*
X395953Y131833D01*
X395200Y132336D01*
X394312Y132512D01*
X391359D01*
X390471Y132336D01*
X389718Y131833D01*
X389343Y131272D01*
X389135Y131219D01*
X388661D01*
X388454Y131272D01*
X388079Y131833D01*
X387326Y132336D01*
X386438Y132512D01*
X386248D01*
X386186Y132823D01*
X385899Y133253D01*
X384047Y135105D01*
X383617Y135392D01*
X383109Y135493D01*
X369158D01*
X368135Y136517D01*
Y187219D01*
X380445Y199529D01*
X381184Y199223D01*
Y196666D01*
X376480Y191961D01*
X375611D01*
X374723Y191785D01*
X373970Y191281D01*
X373467Y190529D01*
X373290Y189640D01*
Y183144D01*
X373467Y182256D01*
X373970Y181503D01*
X374723Y181000D01*
X375611Y180823D01*
X378564D01*
X379452Y181000D01*
X380205Y181503D01*
X380580Y182064D01*
X380787Y182117D01*
X381261D01*
X381469Y182064D01*
X381844Y181503D01*
X382597Y181000D01*
X383485Y180823D01*
X386438D01*
X387326Y181000D01*
X388079Y181503D01*
X388454Y182064D01*
X388661Y182117D01*
X389135D01*
X389343Y182064D01*
X389718Y181503D01*
X390471Y181000D01*
X391359Y180823D01*
X394312D01*
X395200Y181000D01*
X395953Y181503D01*
X396328Y182064D01*
X396535Y182117D01*
X397009D01*
X397217Y182064D01*
X397592Y181503D01*
X398345Y181000D01*
X399233Y180823D01*
X402186D01*
X403074Y181000D01*
X403827Y181503D01*
X404330Y182256D01*
X404507Y183144D01*
Y189640D01*
X404341Y190474D01*
X404347Y190651D01*
X404680Y191274D01*
X412487D01*
X412820Y190651D01*
X412826Y190474D01*
X412660Y189640D01*
Y183144D01*
X412837Y182256D01*
X413340Y181503D01*
X414093Y181000D01*
X414981Y180823D01*
X417934D01*
X418822Y181000D01*
X418937Y181077D01*
X419158Y181010D01*
X419566Y180478D01*
Y160268D01*
X419729Y159035D01*
X420205Y157886D01*
X420962Y156899D01*
X434289Y143572D01*
Y138647D01*
X434485Y137157D01*
X435061Y135768D01*
X435976Y134576D01*
X437168Y133661D01*
X438557Y133086D01*
X440047Y132889D01*
X445953D01*
X447443Y133086D01*
X448832Y133661D01*
X450024Y134576D01*
X450939Y135768D01*
X451514Y137157D01*
X451711Y138647D01*
Y144553D01*
X451514Y146043D01*
X450939Y147432D01*
X450024Y148624D01*
X448832Y149539D01*
X447443Y150115D01*
X445953Y150311D01*
X441028D01*
X429097Y162242D01*
Y180478D01*
X429505Y181010D01*
X429931Y182039D01*
X430077Y183144D01*
Y189640D01*
X429931Y190745D01*
X429835Y190976D01*
X430049Y191375D01*
X430479Y191663D01*
X458247Y219431D01*
X458254Y219442D01*
X459054Y219200D01*
Y119268D01*
X313048D01*
X313048Y235067D01*
X313848Y235146D01*
X313885Y234961D01*
D02*
G37*
%LPC*%
G36*
X336050Y212327D02*
X332088D01*
Y207655D01*
X331719D01*
Y202255D01*
X336419D01*
Y207655D01*
X336050D01*
Y212327D01*
D02*
G37*
G36*
X380490Y280827D02*
X376528D01*
Y276155D01*
X376159D01*
Y270755D01*
X380859D01*
Y276155D01*
X380490D01*
Y280827D01*
D02*
G37*
G36*
X367206D02*
X363243D01*
Y276155D01*
X362874D01*
Y270755D01*
X367574D01*
Y276155D01*
X367206D01*
Y280827D01*
D02*
G37*
G36*
X353920D02*
X349958D01*
Y276155D01*
X349589D01*
Y270755D01*
X354289D01*
Y276155D01*
X353920D01*
Y280827D01*
D02*
G37*
G36*
X343872Y179724D02*
X343142Y179628D01*
X342460Y179346D01*
X341876Y178897D01*
X341427Y178312D01*
X341145Y177631D01*
X341048Y176900D01*
X341145Y176169D01*
X341427Y175488D01*
X341547Y175330D01*
X341595Y174550D01*
X341595Y174550D01*
X341595Y174550D01*
Y169850D01*
X342474D01*
X342604Y169060D01*
X342083Y168712D01*
X341735Y168191D01*
X341722Y168127D01*
X338568D01*
X338556Y168191D01*
X338207Y168712D01*
X337686Y169060D01*
X337072Y169182D01*
X334822D01*
X334207Y169060D01*
X333686Y168712D01*
X333338Y168191D01*
X333216Y167577D01*
Y166027D01*
X333338Y165412D01*
X333686Y164891D01*
X334207Y164543D01*
X334822Y164421D01*
X337072D01*
X337686Y164543D01*
X338207Y164891D01*
X338556Y165412D01*
X338568Y165476D01*
X341722D01*
X341735Y165412D01*
X342083Y164891D01*
X342604Y164543D01*
X343219Y164421D01*
X345469D01*
X346083Y164543D01*
X346604Y164891D01*
X346952Y165412D01*
X347075Y166027D01*
Y167577D01*
X346952Y168191D01*
X346604Y168712D01*
X346083Y169060D01*
X346213Y169850D01*
X346995D01*
Y174550D01*
X346607D01*
X346213Y175350D01*
X346318Y175488D01*
X346600Y176169D01*
X346697Y176900D01*
X346600Y177631D01*
X346318Y178312D01*
X345869Y178897D01*
X345285Y179346D01*
X344603Y179628D01*
X343872Y179724D01*
D02*
G37*
G36*
X321000D02*
X320269Y179628D01*
X319588Y179346D01*
X319003Y178897D01*
X318554Y178312D01*
X318272Y177631D01*
X318176Y176900D01*
X318272Y176169D01*
X318554Y175488D01*
X319003Y174903D01*
X319588Y174454D01*
X319674Y174418D01*
Y169321D01*
X319320D01*
Y164953D01*
X322499D01*
Y169321D01*
X322325D01*
Y174418D01*
X322412Y174454D01*
X322997Y174903D01*
X323446Y175488D01*
X323728Y176169D01*
X323824Y176900D01*
X323728Y177631D01*
X323446Y178312D01*
X322997Y178897D01*
X322412Y179346D01*
X321731Y179628D01*
X321000Y179724D01*
D02*
G37*
G36*
X330772Y169182D02*
X328522D01*
X327907Y169060D01*
X327386Y168712D01*
X327038Y168191D01*
X326916Y167577D01*
Y166027D01*
X327038Y165412D01*
X327386Y164891D01*
X327907Y164543D01*
X328321Y164461D01*
Y156654D01*
X323125D01*
X322503Y157083D01*
Y161443D01*
X319316D01*
Y157083D01*
X319329D01*
Y155322D01*
X319449Y154717D01*
X319792Y154204D01*
X320589Y153407D01*
Y139738D01*
X320589Y139306D01*
X320589Y138506D01*
Y121590D01*
X345811D01*
Y126943D01*
X346031Y126972D01*
X346712Y127254D01*
X347297Y127703D01*
X347746Y128288D01*
X348028Y128969D01*
X348124Y129700D01*
X348028Y130431D01*
X347746Y131112D01*
X347297Y131697D01*
X346712Y132146D01*
X346031Y132428D01*
X345811Y132457D01*
Y138506D01*
X345811Y138938D01*
X345811Y139738D01*
Y156654D01*
X330972D01*
Y164461D01*
X331386Y164543D01*
X331907Y164891D01*
X332256Y165412D01*
X332378Y166027D01*
Y167577D01*
X332256Y168191D01*
X331907Y168712D01*
X331386Y169060D01*
X330772Y169182D01*
D02*
G37*
G36*
X379646Y155487D02*
Y145644D01*
X413111Y145644D01*
Y155487D01*
X379646Y155487D01*
D02*
G37*
G36*
X454400Y131392D02*
X453669Y131296D01*
X452988Y131014D01*
X452403Y130565D01*
X451954Y129980D01*
X451672Y129299D01*
X451576Y128568D01*
X451672Y127837D01*
X451750Y127649D01*
Y123250D01*
X457150D01*
Y127950D01*
X457150D01*
X457224Y128568D01*
X457204Y128719D01*
X457128Y129299D01*
X456846Y129980D01*
X456397Y130565D01*
X455812Y131014D01*
X455131Y131296D01*
X454400Y131392D01*
D02*
G37*
G36*
X445350Y127950D02*
Y127950D01*
X444673Y127950D01*
X439950D01*
Y123250D01*
X445350D01*
Y123250D01*
X445450D01*
Y123250D01*
X450850D01*
Y127950D01*
X446127D01*
X445450Y127950D01*
Y127950D01*
X445350D01*
D02*
G37*
%LPD*%
D13*
X398359Y286368D02*
X401509Y283218D01*
X393709Y286368D02*
X398359D01*
D15*
X454450Y125600D02*
D03*
X448150D02*
D03*
X442650D02*
D03*
X436350D02*
D03*
X344295Y172200D02*
D03*
X350595D02*
D03*
X331609Y221168D02*
D03*
X325309D02*
D03*
X326959Y216468D02*
D03*
X320659D02*
D03*
X344209Y245068D02*
D03*
X350509D02*
D03*
X344209Y240485D02*
D03*
X350509D02*
D03*
X344209Y235901D02*
D03*
X350509D02*
D03*
X344209Y231318D02*
D03*
X350509D02*
D03*
X426350Y224715D02*
D03*
X420050D02*
D03*
X366985Y261487D02*
D03*
X373285D02*
D03*
X440159Y252835D02*
D03*
X433859D02*
D03*
X440159Y243568D02*
D03*
X433859D02*
D03*
X440159Y234301D02*
D03*
X433859D02*
D03*
X440159Y225035D02*
D03*
X433859D02*
D03*
X440159Y215768D02*
D03*
X433859D02*
D03*
X405907Y258368D02*
D03*
X399607D02*
D03*
X417759Y234908D02*
D03*
X424059D02*
D03*
X365017Y256768D02*
D03*
X371317D02*
D03*
X401576Y201068D02*
D03*
X407876D02*
D03*
X433859Y257468D02*
D03*
X440159D02*
D03*
X433859Y248201D02*
D03*
X440159D02*
D03*
X433859Y238935D02*
D03*
X440159D02*
D03*
X433859Y229668D02*
D03*
X440159D02*
D03*
X433859Y220401D02*
D03*
X440159D02*
D03*
D16*
X420500Y208000D02*
D03*
X425500Y211998D02*
D03*
X420500Y215995D02*
D03*
X425500Y219993D02*
D03*
D17*
X320909Y167137D02*
D03*
D18*
Y159263D02*
D03*
D19*
X363047Y252594D02*
D03*
X356747D02*
D03*
X335947Y166802D02*
D03*
X329647D02*
D03*
X350644D02*
D03*
X344344D02*
D03*
D20*
X333200Y130264D02*
D03*
Y147980D02*
D03*
D21*
X375888Y318700D02*
D03*
X386912D02*
D03*
X329612Y190000D02*
D03*
X318588D02*
D03*
D22*
X419800Y265150D02*
D03*
Y271450D02*
D03*
X359772Y206604D02*
D03*
Y212904D02*
D03*
X393728Y268868D02*
D03*
Y275168D02*
D03*
X393709Y286368D02*
D03*
Y280068D02*
D03*
X398564Y286368D02*
D03*
Y280068D02*
D03*
X413146Y286368D02*
D03*
Y280068D02*
D03*
X334069Y198655D02*
D03*
Y204955D02*
D03*
X365224Y267155D02*
D03*
Y273455D02*
D03*
X378509Y267155D02*
D03*
Y273455D02*
D03*
X338654Y267155D02*
D03*
Y273455D02*
D03*
X351939Y267155D02*
D03*
Y273455D02*
D03*
X398564Y268868D02*
D03*
Y275168D02*
D03*
X354609Y208573D02*
D03*
Y214873D02*
D03*
X422855Y286368D02*
D03*
Y280068D02*
D03*
X427709D02*
D03*
Y286368D02*
D03*
X418000Y280068D02*
D03*
Y286368D02*
D03*
X403437D02*
D03*
Y280068D02*
D03*
X408291D02*
D03*
Y286368D02*
D03*
D23*
X323809Y203399D02*
D03*
X320069Y211273D02*
D03*
X327550D02*
D03*
X337809Y217432D02*
D03*
X341550Y209558D02*
D03*
X334069D02*
D03*
X368965Y285932D02*
D03*
X372705Y278058D02*
D03*
X365224D02*
D03*
X382250Y285932D02*
D03*
X385990Y278058D02*
D03*
X378509D02*
D03*
X342394Y285932D02*
D03*
X346135Y278058D02*
D03*
X338654D02*
D03*
X355679Y285932D02*
D03*
X359420Y278058D02*
D03*
X351939D02*
D03*
D24*
X383709Y259818D02*
D03*
D25*
X377087Y186392D02*
D03*
X384961D02*
D03*
X392835D02*
D03*
X400709D02*
D03*
X408583D02*
D03*
X416458D02*
D03*
X424332D02*
D03*
Y126944D02*
D03*
X416458D02*
D03*
X408583D02*
D03*
X377087D02*
D03*
X384961D02*
D03*
X392835D02*
D03*
X400709D02*
D03*
D26*
X402194Y206868D02*
D03*
X400226D02*
D03*
X398257D02*
D03*
X396289D02*
D03*
X394320D02*
D03*
X392352D02*
D03*
X390383D02*
D03*
X388415D02*
D03*
X386446D02*
D03*
X384478D02*
D03*
X382509D02*
D03*
X380541D02*
D03*
X378572D02*
D03*
X376604D02*
D03*
X374635D02*
D03*
X372667D02*
D03*
Y251168D02*
D03*
X374635D02*
D03*
X376604D02*
D03*
X378572D02*
D03*
X380541D02*
D03*
X382509D02*
D03*
X384478D02*
D03*
X386446D02*
D03*
X388415D02*
D03*
X390383D02*
D03*
X392352D02*
D03*
X394320D02*
D03*
X396289D02*
D03*
X398257D02*
D03*
X400226D02*
D03*
X402194D02*
D03*
D27*
X365281Y214254D02*
D03*
Y216223D02*
D03*
Y218191D02*
D03*
Y220160D02*
D03*
Y222128D02*
D03*
Y224097D02*
D03*
Y226065D02*
D03*
Y228034D02*
D03*
Y230002D02*
D03*
Y231971D02*
D03*
Y233939D02*
D03*
Y235908D02*
D03*
Y237876D02*
D03*
Y239845D02*
D03*
Y241813D02*
D03*
Y243782D02*
D03*
X409581D02*
D03*
Y241813D02*
D03*
Y239845D02*
D03*
Y237876D02*
D03*
Y235908D02*
D03*
Y233939D02*
D03*
Y231971D02*
D03*
Y230002D02*
D03*
Y228034D02*
D03*
Y226065D02*
D03*
Y224097D02*
D03*
Y222128D02*
D03*
Y220160D02*
D03*
Y218191D02*
D03*
Y216223D02*
D03*
Y214254D02*
D03*
D45*
X424059Y235426D02*
G03*
X421609Y237876I-2450J0D01*
G01*
X352155Y218191D02*
G03*
X349076Y215112I0J-3079D01*
G01*
X415834Y228034D02*
X416300Y228500D01*
X409581Y228034D02*
X415834D01*
X442650Y125600D02*
X448150D01*
X415218Y224715D02*
X418809D01*
X413868Y226065D02*
X415218Y224715D01*
X409581Y226065D02*
X413868D01*
X418172Y219993D02*
X425500D01*
X416037Y222128D02*
X418172Y219993D01*
X409581Y222128D02*
X416037D01*
X419379Y215995D02*
X420500D01*
X415214Y220160D02*
X419379Y215995D01*
X409581Y220160D02*
X415214D01*
X424332Y229000D02*
X428226D01*
X413338Y233939D02*
X415377Y231900D01*
X421431D02*
X424332Y229000D01*
X415377Y231900D02*
X421431D01*
X397832Y196968D02*
X428109D01*
X396289Y198511D02*
X397832Y196968D01*
X396289Y198511D02*
Y206868D01*
X395932Y195168D02*
X429209D01*
X392352Y198748D02*
X395932Y195168D01*
X392352Y198748D02*
Y206868D01*
X395800Y192600D02*
X429541D01*
X390383Y198017D02*
X395800Y192600D01*
X390383Y198017D02*
Y206868D01*
X429541Y192600D02*
X457309Y220368D01*
X428226Y229000D02*
X430600Y226625D01*
Y222509D02*
Y226625D01*
Y222509D02*
X432708Y220401D01*
X417737Y211998D02*
X425500D01*
X416800Y212935D02*
X417737Y211998D01*
X416800Y212935D02*
Y215800D01*
X414409Y218191D02*
X416800Y215800D01*
X409581Y218191D02*
X414409D01*
X417081Y208000D02*
X420500D01*
X414603Y210478D02*
X417081Y208000D01*
X414603Y210478D02*
Y214909D01*
X413289Y216223D02*
X414603Y214909D01*
X409581Y216223D02*
X413289D01*
X432708Y220401D02*
X433859D01*
X321000Y167728D02*
Y176900D01*
X344344Y166802D02*
Y176429D01*
X343872Y176900D02*
X344344Y176429D01*
X424059Y234908D02*
Y235426D01*
X409581Y237876D02*
X421609D01*
X399607Y257768D02*
X400309Y258470D01*
X398257Y257768D02*
X399607D01*
X409581Y201068D02*
Y214254D01*
X372667Y251168D02*
Y256768D01*
X343700Y218500D02*
X345360Y220160D01*
X365281D01*
X329647Y151533D02*
X333200Y147980D01*
X329647Y151533D02*
Y166802D01*
X335947D02*
X344344D01*
X328251Y147980D02*
X333200D01*
X356747Y255547D02*
X359100Y257900D01*
X356747Y252594D02*
Y255547D01*
X363047Y243782D02*
Y252594D01*
Y243782D02*
X365281D01*
X357509Y241068D02*
Y243591D01*
X338654Y262446D02*
X357509Y243591D01*
X338654Y262446D02*
Y267155D01*
X355409Y240368D02*
Y242480D01*
X352821Y245068D02*
X355409Y242480D01*
X350509Y245068D02*
X352821D01*
X359772Y241605D02*
Y244150D01*
X351939Y251983D02*
X359772Y244150D01*
X351939Y251983D02*
Y267155D01*
X408291Y269450D02*
Y280068D01*
X385600Y306200D02*
Y325500D01*
X315109D02*
X385600D01*
X315109Y235468D02*
Y325500D01*
X400226Y201068D02*
Y206868D01*
X409581Y235908D02*
X417759D01*
X337445Y217432D02*
Y220732D01*
X318709Y239468D02*
Y311468D01*
X324809Y317568D01*
X344389D01*
X353889Y308068D01*
X320909Y310584D02*
X325593Y315268D01*
X338815D01*
X346015Y308068D01*
X322909Y241005D02*
Y308868D01*
X327309Y313268D01*
X334409D01*
X338141Y309536D01*
Y308068D02*
Y309536D01*
X324909Y242168D02*
Y302710D01*
X330267Y308068D01*
X457309Y220368D02*
Y317368D01*
X393259Y308068D02*
X410559Y325368D01*
X449309D01*
X457309Y317368D01*
X401133Y308068D02*
X415933Y322868D01*
X448209D01*
X455309Y315768D01*
X409007Y308068D02*
X421007Y320068D01*
X447409D01*
X453209Y314268D01*
X416881Y308068D02*
X426481Y317668D01*
X446309D01*
X451209Y312768D01*
X424755Y308068D02*
X431955Y315268D01*
X445147D01*
X449403Y311012D01*
X447596Y240782D02*
Y309581D01*
X432629Y308068D02*
Y308238D01*
X437459Y313068D01*
X444109D01*
X447596Y309581D01*
X445789Y248248D02*
Y302782D01*
X440503Y308068D02*
X445789Y302782D01*
X393709Y275168D02*
Y280068D01*
X388209Y290568D02*
X391309Y293668D01*
X396109D01*
X401133Y298692D01*
X388209Y283268D02*
Y290568D01*
X368965Y285932D02*
X371123D01*
X385385Y300194D01*
X382250Y285932D02*
Y289184D01*
X393259Y300194D01*
X401133Y298692D02*
Y300194D01*
X408259Y291218D02*
X416881Y299840D01*
X403437Y286368D02*
Y288632D01*
X406023Y291218D02*
X408259D01*
X403437Y288632D02*
X406023Y291218D01*
X416881Y299840D02*
Y300194D01*
X413146Y286368D02*
Y288004D01*
X424755Y299614D01*
Y300194D01*
X422855Y286368D02*
Y288513D01*
X432629Y298288D01*
Y300194D01*
X440503D02*
X443983Y296714D01*
X355679Y285932D02*
X361074D01*
X368509Y293368D01*
X370685D01*
X377511Y300194D01*
X342394Y285932D02*
X349023D01*
X353659Y290568D01*
X360011D01*
X369637Y300194D01*
X348009Y289568D02*
X352409Y293968D01*
X357709D01*
X361763Y298022D01*
X339173Y292168D02*
X346709D01*
X353889Y299347D01*
Y300194D01*
X332909Y285904D02*
X339173Y292168D01*
X334909Y284168D02*
X340309Y289568D01*
X348009D01*
X332909Y250668D02*
Y285904D01*
X330909Y248068D02*
Y287968D01*
X337509Y294568D01*
X341876D01*
X346015Y298707D01*
Y300194D01*
X328909Y245568D02*
Y290068D01*
X338141Y299299D01*
Y300194D01*
X326909Y243168D02*
Y295637D01*
X330267Y298994D01*
Y300194D01*
X334909Y253368D02*
Y284168D01*
X361763Y298022D02*
Y300194D01*
X441843Y234301D02*
Y235029D01*
X315109Y235468D02*
X323809Y226768D01*
X318709Y239468D02*
X337445Y220732D01*
X319809Y222768D02*
X320069Y222508D01*
X359772Y212904D02*
X361122Y214254D01*
X365281D01*
X359772Y212904D02*
X362808Y209868D01*
X365209D01*
X352155Y218191D02*
X365281D01*
X372667Y202725D02*
Y206868D01*
X349076Y199364D02*
X351172Y197268D01*
X367209D01*
X372667Y202725D01*
X338056Y194668D02*
X367670D01*
X334069Y198655D02*
X338056Y194668D01*
X322909Y241005D02*
X339818Y224097D01*
X324909Y242168D02*
X341012Y226065D01*
X326909Y243168D02*
X342044Y228034D01*
X328909Y245568D02*
X343159Y231318D01*
X330909Y248068D02*
X343076Y235901D01*
X332909Y250668D02*
X343093Y240485D01*
X320909Y239868D02*
X338649Y222128D01*
X320909Y239868D02*
Y310584D01*
X339818Y224097D02*
X365281D01*
X338649Y222128D02*
X365281D01*
X341012Y226065D02*
X365281D01*
X342044Y228034D02*
X365281D01*
X343159Y231318D02*
X344209D01*
X343076Y235901D02*
X344209D01*
X343093Y240485D02*
X344209D01*
X334909Y253368D02*
X343209Y245068D01*
X344209D01*
X355209Y230002D02*
X365281D01*
X353894Y231318D02*
X355209Y230002D01*
X350509Y231318D02*
X353894D01*
X350509Y235901D02*
X352988D01*
X356918Y231971D01*
X365281D01*
X350509Y240485D02*
X352282D01*
X358827Y233939D01*
X365281D01*
X355409Y240368D02*
X359870Y235908D01*
X365281D01*
X364509Y133723D02*
Y188568D01*
Y133723D02*
X371289Y126944D01*
X377087D01*
X364509Y188568D02*
X378572Y202631D01*
X366809Y187768D02*
X380541Y201499D01*
X384961Y126944D02*
Y132316D01*
X383109Y134168D02*
X384961Y132316D01*
X368609Y134168D02*
X383109D01*
X366809Y135968D02*
X368609Y134168D01*
X366809Y135968D02*
Y187768D01*
X378572Y202631D02*
Y206868D01*
X380541Y201499D02*
Y206868D01*
X367670Y194668D02*
X374635Y201633D01*
Y206868D01*
X377087Y186392D02*
Y190695D01*
X382509Y196117D01*
Y206868D01*
X384478Y186876D02*
Y206868D01*
Y186876D02*
X384961Y186392D01*
X392835D02*
Y192342D01*
X388415Y196762D02*
X392835Y192342D01*
X388415Y196762D02*
Y206868D01*
X383709Y259818D02*
X386446Y257081D01*
Y251168D02*
Y257081D01*
X378572Y206868D02*
Y211468D01*
X386446D01*
Y206868D02*
Y211468D01*
X429209Y195168D02*
X455309Y221268D01*
Y315768D01*
X453209Y222068D02*
Y314268D01*
X428109Y196968D02*
X453209Y222068D01*
X440159Y252835D02*
X441023D01*
X443983Y255794D01*
Y296714D01*
X440159Y243568D02*
X441110D01*
X445789Y248248D01*
X441843Y235029D02*
X447596Y240782D01*
X440159Y215768D02*
X441110D01*
X451209Y225868D01*
Y312768D01*
X440159Y225035D02*
X441276D01*
X449403Y233161D01*
Y311012D01*
X440159Y234301D02*
X441843D01*
X388209Y283268D02*
X391409Y280068D01*
X393709D01*
X388415Y251168D02*
Y271673D01*
X391909Y275168D01*
X393709D01*
X394171Y264968D02*
X403809D01*
X408291Y269450D01*
X395897Y263168D02*
X404972D01*
X410409Y268605D01*
Y276168D01*
X397009Y261268D02*
X406091D01*
X412409Y267586D01*
Y275368D01*
X392352Y263149D02*
X394171Y264968D01*
X394320Y251168D02*
Y261591D01*
X395897Y263168D01*
X396289Y251168D02*
Y260547D01*
X397009Y261268D01*
X365224Y267155D02*
X373022D01*
X376604Y263573D01*
X378572Y251168D02*
Y267155D01*
X376604Y251168D02*
Y263573D01*
X357509Y241068D02*
X360701Y237876D01*
X365281D01*
X359772Y241605D02*
X361533Y239845D01*
X365281D01*
X392352Y251168D02*
Y263149D01*
X367809Y249868D02*
X371317Y253375D01*
Y256768D01*
X413209Y276168D02*
X420509D01*
X412409Y275368D02*
X413209Y276168D01*
X410409D02*
X413146Y278905D01*
Y280068D01*
X420509Y276168D02*
X422855Y278513D01*
Y280068D01*
X393709Y275168D02*
X393728D01*
Y268868D02*
X398564D01*
X402409D01*
X405720Y245768D02*
X428109D01*
X430420Y248079D01*
Y250604D01*
X402194Y249293D02*
X405720Y245768D01*
X430420Y250604D02*
X432651Y252835D01*
X409581Y239845D02*
X427833D01*
X430420Y237257D01*
Y231641D02*
Y237257D01*
X409581Y241813D02*
X428864D01*
X431743Y238935D01*
X433859D01*
X432651Y252835D02*
X433859D01*
X409581Y243782D02*
X433646D01*
X433859Y243568D01*
X430420Y231641D02*
X432394Y229668D01*
X433859D01*
X402194Y249293D02*
Y251168D01*
X422855Y280068D02*
X427709D01*
X413146D02*
X418000D01*
X403437D02*
X408291D01*
X433859Y252835D02*
Y257468D01*
Y243568D02*
Y248201D01*
Y234301D02*
Y238935D01*
Y225035D02*
Y229668D01*
Y215768D02*
Y220401D01*
X409581Y233939D02*
X413338D01*
X400226Y235908D02*
Y251168D01*
X417759Y234908D02*
Y235908D01*
X400226D02*
X409581D01*
X400226Y211568D02*
Y235908D01*
Y201068D02*
X401576D01*
X400226Y206868D02*
Y211568D01*
X394320D02*
X400226D01*
X394320Y206868D02*
Y211568D01*
X374635Y251168D02*
Y261487D01*
X373285D02*
X374635D01*
X355809Y216223D02*
X365281D01*
X400226Y255468D02*
X405509D01*
X400226Y251168D02*
Y255468D01*
X398257Y251168D02*
Y257768D01*
X372667Y246068D02*
Y251168D01*
Y246068D02*
X398257D01*
Y251168D01*
X402245Y205404D02*
X403190D01*
X407526Y201068D01*
X407876D01*
X402194Y205454D02*
X402245Y205404D01*
X402194Y205454D02*
Y206868D01*
X371317Y256768D02*
X372667D01*
D46*
X318800Y187100D02*
X324500Y181400D01*
X339359D02*
X345600Y187641D01*
X324500Y181400D02*
X339359D01*
X318800Y187100D02*
Y214609D01*
X345600Y187641D02*
Y190200D01*
X318800Y214609D02*
X320659Y216468D01*
D47*
X320909Y155322D02*
X328251Y147980D01*
X320909Y155322D02*
Y159263D01*
D48*
X323809Y203399D02*
Y226768D01*
X390209Y288568D02*
X392609Y290968D01*
X399781D01*
X409007Y300194D01*
X390209Y284231D02*
Y288568D01*
Y284231D02*
X391222Y283218D01*
X397809D01*
X390383Y270942D02*
X391459Y272018D01*
X390383Y251168D02*
Y270942D01*
X398564Y273073D02*
Y275168D01*
X397809Y283218D02*
X398564Y282463D01*
Y280068D02*
Y282463D01*
X397509Y272018D02*
X398564Y273073D01*
X391459Y272018D02*
X397509D01*
X398564Y275168D02*
Y280068D01*
D49*
X424332Y160268D02*
X443000Y141600D01*
X424332Y160268D02*
Y186392D01*
D50*
X346135Y281868D02*
X359420D01*
X372705D01*
X385990D01*
X359420Y265368D02*
Y278058D01*
Y265368D02*
X363301Y261487D01*
X366985D01*
X372705Y278058D02*
Y281868D01*
X359420Y278058D02*
Y281868D01*
X346135Y278058D02*
Y281868D01*
X385990Y278058D02*
Y281868D01*
X334069Y204955D02*
Y209558D01*
X338654Y273455D02*
Y278058D01*
X351939Y273455D02*
Y278058D01*
X365224Y273455D02*
Y278058D01*
X378509Y273455D02*
Y278058D01*
D51*
X316859Y238218D02*
Y314168D01*
Y238218D02*
X331609Y223468D01*
Y221168D02*
Y223468D01*
X414769Y260568D02*
X431309D01*
X437009D01*
X401509Y283218D02*
X431309D01*
Y260568D02*
Y283218D01*
X405509Y255468D02*
X414769D01*
Y260568D01*
X437009Y257468D02*
Y260568D01*
Y257468D02*
X440159D01*
X437009Y220401D02*
Y257468D01*
Y220401D02*
X440159D01*
D52*
X318559Y217334D02*
D03*
D53*
X443000Y141600D02*
D03*
D54*
X349076Y215112D02*
D03*
Y207238D02*
D03*
Y199364D02*
D03*
D55*
X330267Y300194D02*
D03*
Y308068D02*
D03*
X338141Y300194D02*
D03*
Y308068D02*
D03*
X346015Y300194D02*
D03*
Y308068D02*
D03*
X353889Y300194D02*
D03*
Y308068D02*
D03*
X361763Y300194D02*
D03*
Y308068D02*
D03*
X369637Y300194D02*
D03*
Y308068D02*
D03*
X377511Y300194D02*
D03*
Y308068D02*
D03*
X385385Y300194D02*
D03*
Y308068D02*
D03*
X393259Y300194D02*
D03*
Y308068D02*
D03*
X401133Y300194D02*
D03*
Y308068D02*
D03*
X409007Y300194D02*
D03*
Y308068D02*
D03*
X416881Y300194D02*
D03*
Y308068D02*
D03*
X424755Y300194D02*
D03*
Y308068D02*
D03*
X432629Y300194D02*
D03*
Y308068D02*
D03*
X440503Y300194D02*
D03*
Y308068D02*
D03*
D56*
X420800Y148200D02*
D03*
X397700Y176500D02*
D03*
X414000D02*
D03*
X454400Y128568D02*
D03*
X416300Y228500D02*
D03*
X413000Y249868D02*
D03*
X440503Y291600D02*
D03*
X316200Y176900D02*
D03*
X354200D02*
D03*
X328400Y196300D02*
D03*
X360900Y148200D02*
D03*
X372300D02*
D03*
X447000Y184268D02*
D03*
X436100D02*
D03*
X343872Y176900D02*
D03*
X345600Y190200D02*
D03*
X343700Y218500D02*
D03*
X321000Y176900D02*
D03*
X345300Y129700D02*
D03*
X359100Y257900D02*
D03*
X416600Y271450D02*
D03*
X406700Y276000D02*
D03*
X434700Y284300D02*
D03*
X425800Y256200D02*
D03*
X426100Y207000D02*
D03*
X343200Y205200D02*
D03*
X328400D02*
D03*
X355400Y321300D02*
D03*
X366900D02*
D03*
X379100D02*
D03*
X384058Y273300D02*
D03*
X371147D02*
D03*
X358237D02*
D03*
X345326D02*
D03*
X397909Y241500D02*
D03*
X373727D02*
D03*
Y214600D02*
D03*
X397909D02*
D03*
X365209Y209868D02*
D03*
X416209Y184268D02*
D03*
X367809Y249868D02*
D03*
X402609Y270468D02*
D03*
X426259Y232558D02*
D03*
X411809Y201268D02*
D03*
M02*
