G04*
G04 #@! TF.GenerationSoftware,Altium Limited,Altium Designer,19.0.5 (141)*
G04*
G04 Layer_Color=65535*
%FSLAX25Y25*%
%MOIN*%
G70*
G01*
G75*
%ADD10C,0.00984*%
%ADD11C,0.00750*%
%ADD12C,0.00500*%
%ADD13C,0.00600*%
%ADD14C,0.00787*%
G36*
X373885Y202968D02*
X375385D01*
Y201968D01*
X373885D01*
Y202968D01*
D02*
G37*
G36*
X361381Y229252D02*
X360381D01*
Y230752D01*
X361381D01*
Y229252D01*
D02*
G37*
G36*
X375854Y255068D02*
X377354D01*
Y256068D01*
X375854D01*
Y255068D01*
D02*
G37*
G36*
X393570Y202968D02*
X395070D01*
Y201968D01*
X393570D01*
Y202968D01*
D02*
G37*
G36*
X413481Y231221D02*
X414481D01*
Y232721D01*
X413481D01*
Y231221D01*
D02*
G37*
G36*
X395539Y255068D02*
X397039D01*
Y256068D01*
X395539D01*
Y255068D01*
D02*
G37*
D10*
X411502Y210936D02*
G03*
X411502Y210936I-253J-422D01*
G01*
D11*
X451005Y123927D02*
X451595D01*
X451005Y127273D02*
X451595D01*
X439205Y123927D02*
X439795D01*
X439205Y127273D02*
X439795D01*
X347149Y173873D02*
X347740D01*
X347149Y170527D02*
X347740D01*
X418127Y268005D02*
Y268595D01*
X421473Y268005D02*
Y268595D01*
X328164Y219495D02*
X328755D01*
X328164Y222841D02*
X328755D01*
X323514Y214795D02*
X324105D01*
X323514Y218141D02*
X324105D01*
X358099Y209459D02*
Y210049D01*
X361445Y209459D02*
Y210049D01*
X392055Y271723D02*
Y272313D01*
X395401Y271723D02*
Y272313D01*
X395383Y282923D02*
Y283513D01*
X392036Y282923D02*
Y283513D01*
X400237Y282923D02*
Y283513D01*
X396891Y282923D02*
Y283513D01*
X414819Y282923D02*
Y283513D01*
X411473Y282923D02*
Y283513D01*
X332396Y201510D02*
Y202100D01*
X335742Y201510D02*
Y202100D01*
X363551Y270010D02*
Y270600D01*
X366898Y270010D02*
Y270600D01*
X376836Y270010D02*
Y270600D01*
X380183Y270010D02*
Y270600D01*
X347064Y246741D02*
X347655D01*
X347064Y243395D02*
X347655D01*
X347064Y242158D02*
X347655D01*
X347064Y238811D02*
X347655D01*
X347064Y237575D02*
X347655D01*
X347064Y234228D02*
X347655D01*
X347064Y232991D02*
X347655D01*
X347064Y229645D02*
X347655D01*
X336981Y270010D02*
Y270600D01*
X340328Y270010D02*
Y270600D01*
X350266Y270010D02*
Y270600D01*
X353612Y270010D02*
Y270600D01*
X422905Y223042D02*
X423495D01*
X422905Y226388D02*
X423495D01*
X396891Y271723D02*
Y272313D01*
X400237Y271723D02*
Y272313D01*
X369840Y263160D02*
X370431D01*
X369840Y259813D02*
X370431D01*
X352936Y211427D02*
Y212018D01*
X356283Y211427D02*
Y212018D01*
X424528Y282923D02*
Y283513D01*
X421182Y282923D02*
Y283513D01*
X436714Y251161D02*
X437305D01*
X436714Y254508D02*
X437305D01*
X436714Y241895D02*
X437305D01*
X436714Y245241D02*
X437305D01*
X436714Y232628D02*
X437305D01*
X436714Y235975D02*
X437305D01*
X436714Y223361D02*
X437305D01*
X436714Y226708D02*
X437305D01*
X436714Y214095D02*
X437305D01*
X436714Y217441D02*
X437305D01*
X402462Y256695D02*
X403053D01*
X402462Y260041D02*
X403053D01*
X420614Y236581D02*
X421205D01*
X420614Y233235D02*
X421205D01*
X367872Y258441D02*
X368462D01*
X367872Y255095D02*
X368462D01*
X404431Y202741D02*
X405021D01*
X404431Y199395D02*
X405021D01*
X426036Y282923D02*
Y283513D01*
X429383Y282923D02*
Y283513D01*
X436714Y259141D02*
X437305D01*
X436714Y255795D02*
X437305D01*
X436714Y249874D02*
X437305D01*
X436714Y246528D02*
X437305D01*
X436714Y240608D02*
X437305D01*
X436714Y237261D02*
X437305D01*
X436714Y231341D02*
X437305D01*
X436714Y227995D02*
X437305D01*
X436714Y222075D02*
X437305D01*
X436714Y218728D02*
X437305D01*
X416327Y282923D02*
Y283513D01*
X419674Y282923D02*
Y283513D01*
X405110Y282923D02*
Y283513D01*
X401764Y282923D02*
Y283513D01*
X406618Y282923D02*
Y283513D01*
X409965Y282923D02*
Y283513D01*
D12*
X318350Y164684D02*
X323468D01*
X318350Y159853D02*
Y166546D01*
X323469Y159853D02*
Y166546D01*
D13*
X356846Y254857D02*
X362554D01*
X356846Y250527D02*
X362554D01*
X329746Y169065D02*
X335454D01*
X329746Y164735D02*
X335454D01*
X344443Y169065D02*
X350151D01*
X344443Y164735D02*
X350151D01*
X367031Y249418D02*
X370807D01*
X407831Y245642D02*
Y249418D01*
Y208618D02*
Y212394D01*
X367031Y208618D02*
X370807D01*
X367031Y245642D02*
Y249418D01*
X404054D02*
X407831D01*
X367031Y208618D02*
Y212394D01*
X404054Y208618D02*
X407831D01*
D14*
X379825Y323621D02*
X382975Y323621D01*
X379825Y313779D02*
X382975Y313779D01*
X322525Y185079D02*
X325675Y185079D01*
X322525Y194921D02*
X325675Y194921D01*
X317904Y204580D02*
X321054D01*
X317904D02*
Y207730D01*
X326565Y204580D02*
X329715D01*
Y207730D01*
X340565Y216251D02*
X343715D01*
Y213102D02*
Y216251D01*
X331904D02*
X335053D01*
X331904Y213102D02*
Y216251D01*
X371720Y284751D02*
X374870D01*
Y281602D02*
Y284751D01*
X363059D02*
X366209D01*
X363059Y281602D02*
Y284751D01*
X385005D02*
X388155D01*
Y281602D02*
Y284751D01*
X376344D02*
X379494D01*
X376344Y281602D02*
Y284751D01*
X345150D02*
X348300D01*
Y281602D02*
Y284751D01*
X336489D02*
X339638D01*
X336489Y281602D02*
Y284751D01*
X358435D02*
X361585D01*
Y281602D02*
Y284751D01*
X349774D02*
X352923D01*
X349774Y281602D02*
Y284751D01*
X326330Y296257D02*
Y312005D01*
X444440D01*
X326330Y296257D02*
X444440D01*
Y312005D01*
M02*
