G04*
G04 #@! TF.GenerationSoftware,Altium Limited,Altium Designer,19.0.5 (141)*
G04*
G04 Layer_Color=8421504*
%FSLAX25Y25*%
%MOIN*%
G70*
G01*
G75*
%ADD15R,0.03800X0.03100*%
%ADD16R,0.03937X0.03937*%
%ADD17R,0.01579X0.02768*%
%ADD18R,0.01587X0.02760*%
G04:AMPARAMS|DCode=19|XSize=31mil|YSize=38mil|CornerRadius=7.75mil|HoleSize=0mil|Usage=FLASHONLY|Rotation=270.000|XOffset=0mil|YOffset=0mil|HoleType=Round|Shape=RoundedRectangle|*
%AMROUNDEDRECTD19*
21,1,0.03100,0.02250,0,0,270.0*
21,1,0.01550,0.03800,0,0,270.0*
1,1,0.01550,-0.01125,-0.00775*
1,1,0.01550,-0.01125,0.00775*
1,1,0.01550,0.01125,0.00775*
1,1,0.01550,0.01125,-0.00775*
%
%ADD19ROUNDEDRECTD19*%
%ADD20R,0.23622X0.15748*%
%ADD21R,0.06299X0.10630*%
%ADD22R,0.03100X0.03800*%
%ADD23R,0.02362X0.03937*%
G04:AMPARAMS|DCode=24|XSize=59.06mil|YSize=59.06mil|CornerRadius=14.76mil|HoleSize=0mil|Usage=FLASHONLY|Rotation=180.000|XOffset=0mil|YOffset=0mil|HoleType=Round|Shape=RoundedRectangle|*
%AMROUNDEDRECTD24*
21,1,0.05906,0.02953,0,0,180.0*
21,1,0.02953,0.05906,0,0,180.0*
1,1,0.02953,-0.01476,0.01476*
1,1,0.02953,0.01476,0.01476*
1,1,0.02953,0.01476,-0.01476*
1,1,0.02953,-0.01476,-0.01476*
%
%ADD24ROUNDEDRECTD24*%
G04:AMPARAMS|DCode=25|XSize=94.49mil|YSize=59.06mil|CornerRadius=14.76mil|HoleSize=0mil|Usage=FLASHONLY|Rotation=90.000|XOffset=0mil|YOffset=0mil|HoleType=Round|Shape=RoundedRectangle|*
%AMROUNDEDRECTD25*
21,1,0.09449,0.02953,0,0,90.0*
21,1,0.06496,0.05906,0,0,90.0*
1,1,0.02953,0.01476,0.03248*
1,1,0.02953,0.01476,-0.03248*
1,1,0.02953,-0.01476,-0.03248*
1,1,0.02953,-0.01476,0.03248*
%
%ADD25ROUNDEDRECTD25*%
%ADD26R,0.01100X0.05800*%
%ADD27R,0.05800X0.01100*%
D15*
X454450Y125600D02*
D03*
X448150D02*
D03*
X442650D02*
D03*
X436350D02*
D03*
X344295Y172200D02*
D03*
X350595D02*
D03*
X331609Y221168D02*
D03*
X325309D02*
D03*
X326959Y216468D02*
D03*
X320659D02*
D03*
X344209Y245068D02*
D03*
X350509D02*
D03*
X344209Y240485D02*
D03*
X350509D02*
D03*
X344209Y235901D02*
D03*
X350509D02*
D03*
X344209Y231318D02*
D03*
X350509D02*
D03*
X426350Y224715D02*
D03*
X420050D02*
D03*
X366985Y261487D02*
D03*
X373285D02*
D03*
X440159Y252835D02*
D03*
X433859D02*
D03*
X440159Y243568D02*
D03*
X433859D02*
D03*
X440159Y234301D02*
D03*
X433859D02*
D03*
X440159Y225035D02*
D03*
X433859D02*
D03*
X440159Y215768D02*
D03*
X433859D02*
D03*
X405907Y258368D02*
D03*
X399607D02*
D03*
X417759Y234908D02*
D03*
X424059D02*
D03*
X365017Y256768D02*
D03*
X371317D02*
D03*
X401576Y201068D02*
D03*
X407876D02*
D03*
X433859Y257468D02*
D03*
X440159D02*
D03*
X433859Y248201D02*
D03*
X440159D02*
D03*
X433859Y238935D02*
D03*
X440159D02*
D03*
X433859Y229668D02*
D03*
X440159D02*
D03*
X433859Y220401D02*
D03*
X440159D02*
D03*
D16*
X420500Y208000D02*
D03*
X425500Y211998D02*
D03*
X420500Y215995D02*
D03*
X425500Y219993D02*
D03*
D17*
X320909Y167137D02*
D03*
D18*
Y159263D02*
D03*
D19*
X363047Y252594D02*
D03*
X356747D02*
D03*
X335947Y166802D02*
D03*
X329647D02*
D03*
X350644D02*
D03*
X344344D02*
D03*
D20*
X333200Y130264D02*
D03*
Y147980D02*
D03*
D21*
X375888Y318700D02*
D03*
X386912D02*
D03*
X329612Y190000D02*
D03*
X318588D02*
D03*
D22*
X419800Y265150D02*
D03*
Y271450D02*
D03*
X359772Y206604D02*
D03*
Y212904D02*
D03*
X393728Y268868D02*
D03*
Y275168D02*
D03*
X393709Y286368D02*
D03*
Y280068D02*
D03*
X398564Y286368D02*
D03*
Y280068D02*
D03*
X413146Y286368D02*
D03*
Y280068D02*
D03*
X334069Y198655D02*
D03*
Y204955D02*
D03*
X365224Y267155D02*
D03*
Y273455D02*
D03*
X378509Y267155D02*
D03*
Y273455D02*
D03*
X338654Y267155D02*
D03*
Y273455D02*
D03*
X351939Y267155D02*
D03*
Y273455D02*
D03*
X398564Y268868D02*
D03*
Y275168D02*
D03*
X354609Y208573D02*
D03*
Y214873D02*
D03*
X422855Y286368D02*
D03*
Y280068D02*
D03*
X427709D02*
D03*
Y286368D02*
D03*
X418000Y280068D02*
D03*
Y286368D02*
D03*
X403437D02*
D03*
Y280068D02*
D03*
X408291D02*
D03*
Y286368D02*
D03*
D23*
X323809Y203399D02*
D03*
X320069Y211273D02*
D03*
X327550D02*
D03*
X337809Y217432D02*
D03*
X341550Y209558D02*
D03*
X334069D02*
D03*
X368965Y285932D02*
D03*
X372705Y278058D02*
D03*
X365224D02*
D03*
X382250Y285932D02*
D03*
X385990Y278058D02*
D03*
X378509D02*
D03*
X342394Y285932D02*
D03*
X346135Y278058D02*
D03*
X338654D02*
D03*
X355679Y285932D02*
D03*
X359420Y278058D02*
D03*
X351939D02*
D03*
D24*
X383709Y259818D02*
D03*
D25*
X377087Y186392D02*
D03*
X384961D02*
D03*
X392835D02*
D03*
X400709D02*
D03*
X408583D02*
D03*
X416458D02*
D03*
X424332D02*
D03*
Y126944D02*
D03*
X416458D02*
D03*
X408583D02*
D03*
X377087D02*
D03*
X384961D02*
D03*
X392835D02*
D03*
X400709D02*
D03*
D26*
X402194Y206868D02*
D03*
X400226D02*
D03*
X398257D02*
D03*
X396289D02*
D03*
X394320D02*
D03*
X392352D02*
D03*
X390383D02*
D03*
X388415D02*
D03*
X386446D02*
D03*
X384478D02*
D03*
X382509D02*
D03*
X380541D02*
D03*
X378572D02*
D03*
X376604D02*
D03*
X374635D02*
D03*
X372667D02*
D03*
Y251168D02*
D03*
X374635D02*
D03*
X376604D02*
D03*
X378572D02*
D03*
X380541D02*
D03*
X382509D02*
D03*
X384478D02*
D03*
X386446D02*
D03*
X388415D02*
D03*
X390383D02*
D03*
X392352D02*
D03*
X394320D02*
D03*
X396289D02*
D03*
X398257D02*
D03*
X400226D02*
D03*
X402194D02*
D03*
D27*
X365281Y214254D02*
D03*
Y216223D02*
D03*
Y218191D02*
D03*
Y220160D02*
D03*
Y222128D02*
D03*
Y224097D02*
D03*
Y226065D02*
D03*
Y228034D02*
D03*
Y230002D02*
D03*
Y231971D02*
D03*
Y233939D02*
D03*
Y235908D02*
D03*
Y237876D02*
D03*
Y239845D02*
D03*
Y241813D02*
D03*
Y243782D02*
D03*
X409581D02*
D03*
Y241813D02*
D03*
Y239845D02*
D03*
Y237876D02*
D03*
Y235908D02*
D03*
Y233939D02*
D03*
Y231971D02*
D03*
Y230002D02*
D03*
Y228034D02*
D03*
Y226065D02*
D03*
Y224097D02*
D03*
Y222128D02*
D03*
Y220160D02*
D03*
Y218191D02*
D03*
Y216223D02*
D03*
Y214254D02*
D03*
M02*
