G04*
G04 #@! TF.GenerationSoftware,Altium Limited,Altium Designer,19.0.5 (141)*
G04*
G04 Layer_Color=16711935*
%FSLAX25Y25*%
%MOIN*%
G70*
G01*
G75*
%ADD13R,0.03900X0.04600*%
G04:AMPARAMS|DCode=15|XSize=67.06mil|YSize=86.74mil|CornerRadius=18.76mil|HoleSize=0mil|Usage=FLASHONLY|Rotation=0.000|XOffset=0mil|YOffset=0mil|HoleType=Round|Shape=RoundedRectangle|*
%AMROUNDEDRECTD15*
21,1,0.06706,0.04921,0,0,0.0*
21,1,0.02953,0.08674,0,0,0.0*
1,1,0.03753,0.01476,-0.02461*
1,1,0.03753,-0.01476,-0.02461*
1,1,0.03753,-0.01476,0.02461*
1,1,0.03753,0.01476,0.02461*
%
%ADD15ROUNDEDRECTD15*%
%ADD16C,0.05800*%
G04:AMPARAMS|DCode=17|XSize=126.11mil|YSize=126.11mil|CornerRadius=33.53mil|HoleSize=0mil|Usage=FLASHONLY|Rotation=0.000|XOffset=0mil|YOffset=0mil|HoleType=Round|Shape=RoundedRectangle|*
%AMROUNDEDRECTD17*
21,1,0.12611,0.05906,0,0,0.0*
21,1,0.05906,0.12611,0,0,0.0*
1,1,0.06706,0.02953,-0.02953*
1,1,0.06706,-0.02953,-0.02953*
1,1,0.06706,-0.02953,0.02953*
1,1,0.06706,0.02953,0.02953*
%
%ADD17ROUNDEDRECTD17*%
%ADD18C,0.05300*%
%ADD40R,0.04737X0.04737*%
%ADD41R,0.04600X0.03900*%
%ADD42R,0.07099X0.11430*%
%ADD43R,0.03556X0.05918*%
%ADD44R,0.07099X0.09068*%
%ADD45R,0.06115X0.02375*%
%ADD46R,0.08280X0.07887*%
G04:AMPARAMS|DCode=47|XSize=102.49mil|YSize=67.06mil|CornerRadius=18.76mil|HoleSize=0mil|Usage=FLASHONLY|Rotation=90.000|XOffset=0mil|YOffset=0mil|HoleType=Round|Shape=RoundedRectangle|*
%AMROUNDEDRECTD47*
21,1,0.10249,0.02953,0,0,90.0*
21,1,0.06496,0.06706,0,0,90.0*
1,1,0.03753,0.01476,0.03248*
1,1,0.03753,0.01476,-0.03248*
1,1,0.03753,-0.01476,-0.03248*
1,1,0.03753,-0.01476,0.03248*
%
%ADD47ROUNDEDRECTD47*%
%ADD48R,0.03162X0.04737*%
%ADD49R,0.06600X0.01900*%
%ADD50R,0.01900X0.06600*%
D13*
X630448Y268085D02*
D03*
Y261785D02*
D03*
X635548Y268085D02*
D03*
Y261785D02*
D03*
X625348Y268085D02*
D03*
Y261785D02*
D03*
X640848Y262235D02*
D03*
Y255935D02*
D03*
X647148Y172885D02*
D03*
Y179185D02*
D03*
X622148Y175735D02*
D03*
Y182035D02*
D03*
X551103Y206885D02*
D03*
Y213185D02*
D03*
X545048Y209862D02*
D03*
Y216162D02*
D03*
X539348Y212255D02*
D03*
Y218555D02*
D03*
X697291Y174160D02*
D03*
Y167860D02*
D03*
X628043Y218810D02*
D03*
Y212510D02*
D03*
X622880Y216841D02*
D03*
Y210541D02*
D03*
D15*
X735748Y322235D02*
D03*
Y312635D02*
D03*
D16*
X736661Y220276D02*
D03*
Y230276D02*
D03*
Y210276D02*
D03*
D17*
X542493Y117913D02*
D03*
D18*
X620548Y268352D02*
D03*
X634248Y303135D02*
D03*
X543648Y312435D02*
D03*
X543848Y265135D02*
D03*
X544448Y200412D02*
D03*
X729348Y293035D02*
D03*
Y244435D02*
D03*
Y216903D02*
D03*
Y171035D02*
D03*
X554548Y118035D02*
D03*
X704248D02*
D03*
X629398D02*
D03*
X552348Y132435D02*
D03*
X601748Y178235D02*
D03*
X552348Y159635D02*
D03*
X584748Y221459D02*
D03*
X607248D02*
D03*
X634825Y211635D02*
D03*
X617175Y213835D02*
D03*
X588332Y292735D02*
D03*
X610448D02*
D03*
X648842Y232235D02*
D03*
X632048Y231735D02*
D03*
X638948Y229535D02*
D03*
X648098Y217935D02*
D03*
X722185Y202635D02*
D03*
X716648D02*
D03*
X647148Y182435D02*
D03*
X622241Y185235D02*
D03*
X584248Y200635D02*
D03*
X551103Y216903D02*
D03*
X545121Y219553D02*
D03*
X539139Y222203D02*
D03*
X557624Y241835D02*
D03*
X592003Y236024D02*
D03*
X644248Y248635D02*
D03*
X638448Y248735D02*
D03*
X635548Y258035D02*
D03*
X631162Y254095D02*
D03*
X626775Y250155D02*
D03*
X723187Y341536D02*
D03*
X707953D02*
D03*
X681519D02*
D03*
X655085D02*
D03*
X628651D02*
D03*
X602216D02*
D03*
X575782D02*
D03*
X549348D02*
D03*
X631523Y202559D02*
D03*
X617175Y253855D02*
D03*
X683346Y154791D02*
D03*
X566443Y188205D02*
D03*
X570843Y205005D02*
D03*
D40*
X625148Y233945D02*
D03*
X582748Y272413D02*
D03*
Y267113D02*
D03*
X575448Y257013D02*
D03*
X564348Y251913D02*
D03*
Y246913D02*
D03*
X564948Y234313D02*
D03*
Y225435D02*
D03*
D41*
X642459Y229135D02*
D03*
X648759D02*
D03*
X654398Y248535D02*
D03*
X648098D02*
D03*
X647798Y237835D02*
D03*
X641498D02*
D03*
X574798Y200235D02*
D03*
X581098D02*
D03*
X711198Y226635D02*
D03*
X704898D02*
D03*
X713335Y168351D02*
D03*
X719635D02*
D03*
X611335Y260705D02*
D03*
X617635D02*
D03*
X558593Y238845D02*
D03*
X564893D02*
D03*
Y229635D02*
D03*
X558593D02*
D03*
X711118Y221723D02*
D03*
X704817D02*
D03*
Y216868D02*
D03*
X711118D02*
D03*
X583045Y262305D02*
D03*
X576745D02*
D03*
X574776Y205005D02*
D03*
X581076D02*
D03*
X609367Y265423D02*
D03*
X615667D02*
D03*
X685346Y161091D02*
D03*
X691646D02*
D03*
D42*
X718551Y155315D02*
D03*
X707528D02*
D03*
X698836Y207235D02*
D03*
X709860D02*
D03*
D43*
X713709Y196653D02*
D03*
X718709D02*
D03*
X708709D02*
D03*
X703709D02*
D03*
X713709Y175000D02*
D03*
X718709D02*
D03*
X708709D02*
D03*
X703709D02*
D03*
D44*
X722685Y120266D02*
D03*
Y144676D02*
D03*
D45*
X722193Y127353D02*
D03*
Y129912D02*
D03*
Y132471D02*
D03*
Y135030D02*
D03*
Y137589D02*
D03*
D46*
X732724Y117510D02*
D03*
Y127943D02*
D03*
Y136998D02*
D03*
Y147432D02*
D03*
D47*
X581943Y130880D02*
D03*
X589817D02*
D03*
X597691D02*
D03*
X605565D02*
D03*
X574069D02*
D03*
X566195D02*
D03*
X558321D02*
D03*
Y190329D02*
D03*
X566195D02*
D03*
X574069D02*
D03*
X581943D02*
D03*
X589817D02*
D03*
X597691D02*
D03*
X605565D02*
D03*
D48*
X692236Y166286D02*
D03*
X684756D02*
D03*
X688496Y174160D02*
D03*
D49*
X573071Y218191D02*
D03*
Y220160D02*
D03*
Y222128D02*
D03*
Y224097D02*
D03*
Y226065D02*
D03*
Y228034D02*
D03*
Y230002D02*
D03*
Y231971D02*
D03*
Y233939D02*
D03*
Y235908D02*
D03*
Y237876D02*
D03*
Y239845D02*
D03*
Y241813D02*
D03*
Y243782D02*
D03*
Y245750D02*
D03*
Y247719D02*
D03*
X617371D02*
D03*
Y245750D02*
D03*
Y243782D02*
D03*
Y241813D02*
D03*
Y239845D02*
D03*
Y237876D02*
D03*
Y235908D02*
D03*
Y233939D02*
D03*
Y231971D02*
D03*
Y230002D02*
D03*
Y228034D02*
D03*
Y226065D02*
D03*
Y224097D02*
D03*
Y222128D02*
D03*
Y220160D02*
D03*
Y218191D02*
D03*
D50*
X580458Y255105D02*
D03*
X582426D02*
D03*
X584395D02*
D03*
X586363D02*
D03*
X588332D02*
D03*
X590300D02*
D03*
X592269D02*
D03*
X594237D02*
D03*
X596206D02*
D03*
X598174D02*
D03*
X600143D02*
D03*
X602111D02*
D03*
X604080D02*
D03*
X606048D02*
D03*
X608017D02*
D03*
X609985D02*
D03*
Y210805D02*
D03*
X608017D02*
D03*
X606048D02*
D03*
X604080D02*
D03*
X602111D02*
D03*
X600143D02*
D03*
X598174D02*
D03*
X596206D02*
D03*
X594237D02*
D03*
X592269D02*
D03*
X590300D02*
D03*
X588332D02*
D03*
X586363D02*
D03*
X584395D02*
D03*
X582426D02*
D03*
X580458D02*
D03*
M02*
