G04*
G04 #@! TF.GenerationSoftware,Altium Limited,Altium Designer,19.0.5 (141)*
G04*
G04 Layer_Color=8421504*
%FSLAX25Y25*%
%MOIN*%
G70*
G01*
G75*
%ADD11R,0.03100X0.03800*%
%ADD12R,0.07874X0.07874*%
D11*
X728787Y325788D02*
D03*
Y319488D02*
D03*
X702353Y325788D02*
D03*
Y319488D02*
D03*
X675919Y325788D02*
D03*
Y319488D02*
D03*
X649485Y325788D02*
D03*
Y319488D02*
D03*
X623051Y325788D02*
D03*
Y319488D02*
D03*
X596616Y325788D02*
D03*
Y319488D02*
D03*
X570182Y325788D02*
D03*
Y319488D02*
D03*
X543748Y325788D02*
D03*
Y319488D02*
D03*
X728787Y341536D02*
D03*
Y335236D02*
D03*
X702353Y341536D02*
D03*
Y335236D02*
D03*
X675919Y341536D02*
D03*
Y335236D02*
D03*
X649485Y341536D02*
D03*
Y335236D02*
D03*
X623051Y341536D02*
D03*
Y335236D02*
D03*
X596616Y341536D02*
D03*
Y335236D02*
D03*
X570182Y341536D02*
D03*
Y335236D02*
D03*
X543748Y341536D02*
D03*
Y335236D02*
D03*
D12*
X673669Y255709D02*
D03*
Y161221D02*
D03*
Y302953D02*
D03*
Y283268D02*
D03*
Y236024D02*
D03*
Y208465D02*
D03*
Y188779D02*
D03*
Y141535D02*
D03*
X663827D02*
D03*
Y188779D02*
D03*
Y208465D02*
D03*
Y236024D02*
D03*
Y283268D02*
D03*
Y302953D02*
D03*
Y161221D02*
D03*
Y255709D02*
D03*
X608709Y141535D02*
D03*
Y188779D02*
D03*
Y208465D02*
D03*
Y236024D02*
D03*
Y283268D02*
D03*
Y302953D02*
D03*
Y161221D02*
D03*
Y255709D02*
D03*
X543748D02*
D03*
Y161221D02*
D03*
Y302953D02*
D03*
Y283268D02*
D03*
Y236024D02*
D03*
Y208465D02*
D03*
Y188779D02*
D03*
Y141535D02*
D03*
X598866Y255709D02*
D03*
Y161221D02*
D03*
Y302953D02*
D03*
Y283268D02*
D03*
Y236024D02*
D03*
Y208465D02*
D03*
Y188779D02*
D03*
Y141535D02*
D03*
X728787Y161221D02*
D03*
Y255709D02*
D03*
Y302953D02*
D03*
Y283268D02*
D03*
Y236024D02*
D03*
Y208465D02*
D03*
Y188779D02*
D03*
Y141535D02*
D03*
M02*
