M48
;Layer_Color=9474304
;FILE_FORMAT=2:5
INCH,LZ
;TYPE=PLATED
T1F00S00C0.02000
T2F00S00C0.03150
T3F00S00C0.03543
T4F00S00C0.04724
%
T01
X0554548Y0118035
X0552348Y0132435
X0629398Y0118035
X0704248
X0683346Y0154791
X0729348Y0171035
X0722185Y0202635
X0716648
X0729348Y0216903
Y0244435
Y0293035
X0634248Y0303135
X0635548Y0258035
X0631162Y0254095
X0626775Y0250155
X0638448Y0248735
X0644248Y0248635
X0648842Y0232235
X0638948Y0229535
X0632048Y0231735
X0634825Y0211635
X0631523Y0202559
X0648098Y0217935
X0647148Y0182435
X0622241Y0185235
X0601748Y0178235
X0584248Y0200635
X0570843Y0205005
X0566443Y0188205
X0544448Y0200412
X0545121Y0219553
X0551103Y0216903
X0539139Y0222203
X0557624Y0241835
X0543848Y0265135
X0543648Y0312435
X0588332Y0292735
X0610448
X0620548Y0268352
X0617175Y0253855
Y0213835
X0607248Y0221459
X0584748
X0592003Y0236024
X0552348Y0159635
X0549348Y0341536
X0575782
X0602216
X0628651
X0655085
X0681519
X0707953
X0723187
T02
X0735748Y0312635
Y0322235
T03
X0736661Y0210276
Y0220276
Y0230276
T04
X0542493Y0117913
M30
