G04*
G04 #@! TF.GenerationSoftware,Altium Limited,Altium Designer,19.0.5 (141)*
G04*
G04 Layer_Physical_Order=2*
G04 Layer_Color=16711680*
%FSLAX25Y25*%
%MOIN*%
G70*
G01*
G75*
%ADD11R,0.03100X0.03800*%
%ADD19C,0.01500*%
%ADD20C,0.01000*%
%ADD21C,0.02000*%
G04:AMPARAMS|DCode=22|XSize=59.06mil|YSize=78.74mil|CornerRadius=14.76mil|HoleSize=0mil|Usage=FLASHONLY|Rotation=0.000|XOffset=0mil|YOffset=0mil|HoleType=Round|Shape=RoundedRectangle|*
%AMROUNDEDRECTD22*
21,1,0.05906,0.04921,0,0,0.0*
21,1,0.02953,0.07874,0,0,0.0*
1,1,0.02953,0.01476,-0.02461*
1,1,0.02953,-0.01476,-0.02461*
1,1,0.02953,-0.01476,0.02461*
1,1,0.02953,0.01476,0.02461*
%
%ADD22ROUNDEDRECTD22*%
%ADD23C,0.05000*%
G04:AMPARAMS|DCode=24|XSize=118.11mil|YSize=118.11mil|CornerRadius=29.53mil|HoleSize=0mil|Usage=FLASHONLY|Rotation=0.000|XOffset=0mil|YOffset=0mil|HoleType=Round|Shape=RoundedRectangle|*
%AMROUNDEDRECTD24*
21,1,0.11811,0.05906,0,0,0.0*
21,1,0.05906,0.11811,0,0,0.0*
1,1,0.05906,0.02953,-0.02953*
1,1,0.05906,-0.02953,-0.02953*
1,1,0.05906,-0.02953,0.02953*
1,1,0.05906,0.02953,0.02953*
%
%ADD24ROUNDEDRECTD24*%
%ADD25C,0.04500*%
%ADD26R,0.03937X0.03937*%
%ADD27R,0.03800X0.03100*%
%ADD28R,0.06299X0.10630*%
%ADD29R,0.02756X0.05118*%
%ADD30R,0.06299X0.08268*%
%ADD31R,0.05315X0.01575*%
%ADD32R,0.07480X0.07087*%
G04:AMPARAMS|DCode=33|XSize=94.49mil|YSize=59.06mil|CornerRadius=14.76mil|HoleSize=0mil|Usage=FLASHONLY|Rotation=90.000|XOffset=0mil|YOffset=0mil|HoleType=Round|Shape=RoundedRectangle|*
%AMROUNDEDRECTD33*
21,1,0.09449,0.02953,0,0,90.0*
21,1,0.06496,0.05906,0,0,90.0*
1,1,0.02953,0.01476,0.03248*
1,1,0.02953,0.01476,-0.03248*
1,1,0.02953,-0.01476,-0.03248*
1,1,0.02953,-0.01476,0.03248*
%
%ADD33ROUNDEDRECTD33*%
%ADD34R,0.02362X0.03937*%
%ADD35R,0.05800X0.01100*%
%ADD36R,0.01100X0.05800*%
%ADD37C,0.03000*%
%ADD38C,0.02500*%
%ADD39R,0.07700X0.15932*%
G36*
X739477Y326502D02*
X738920Y326274D01*
X738677Y326223D01*
X738035Y326652D01*
X737224Y326813D01*
X734272D01*
X733462Y326652D01*
X732775Y326193D01*
X732316Y325506D01*
X732155Y324696D01*
Y323867D01*
X729048D01*
X728424Y323743D01*
X727894Y323389D01*
X718294Y313789D01*
X717941Y313260D01*
X717817Y312635D01*
Y217499D01*
X713468Y213150D01*
X712239D01*
Y214718D01*
X713618D01*
Y219018D01*
X708617D01*
Y214718D01*
X709996D01*
Y213222D01*
X709924Y213150D01*
X706110D01*
Y209336D01*
X702916Y206142D01*
X702672Y205778D01*
X702587Y205349D01*
X702587Y205349D01*
Y199813D01*
X701731D01*
Y193494D01*
X705687D01*
Y199813D01*
X704830D01*
Y204884D01*
X705371Y205425D01*
X706110Y205119D01*
Y201321D01*
X712616D01*
X712947Y200520D01*
X712916Y200489D01*
X712673Y200125D01*
X712610Y199813D01*
X711731D01*
Y193494D01*
X715687D01*
Y198560D01*
X716487Y199065D01*
X716731Y198949D01*
Y193494D01*
X720687D01*
Y199051D01*
X721488Y199853D01*
X722185Y199761D01*
X722929Y199859D01*
X723622Y200146D01*
X724218Y200603D01*
X724675Y201198D01*
X724962Y201891D01*
X725060Y202635D01*
X724962Y203379D01*
X724675Y204073D01*
X724218Y204668D01*
X723622Y205125D01*
X722929Y205412D01*
X722185Y205510D01*
X721441Y205412D01*
X720748Y205125D01*
X720152Y204668D01*
X719896Y204333D01*
X719720Y204273D01*
X719114D01*
X718938Y204333D01*
X718681Y204668D01*
X718085Y205125D01*
X717392Y205412D01*
X716648Y205510D01*
X715904Y205412D01*
X715211Y205125D01*
X714615Y204668D01*
X714409Y204400D01*
X713609Y204671D01*
Y208678D01*
X720602Y215670D01*
X720955Y216199D01*
X721079Y216824D01*
Y311960D01*
X729724Y320604D01*
X732155D01*
Y319775D01*
X732316Y318965D01*
X732775Y318278D01*
X733462Y317819D01*
X734272Y317658D01*
X737224D01*
X738035Y317819D01*
X738677Y318248D01*
X738920Y318196D01*
X739477Y317969D01*
Y232991D01*
X739325Y232864D01*
X738677Y232636D01*
X738225Y232983D01*
X737471Y233296D01*
X736661Y233402D01*
X735852Y233296D01*
X735098Y232983D01*
X734450Y232487D01*
X733954Y231839D01*
X733641Y231085D01*
X733535Y230276D01*
X733641Y229466D01*
X733954Y228712D01*
X734450Y228065D01*
X735098Y227568D01*
X735852Y227255D01*
X736661Y227149D01*
X737471Y227255D01*
X738225Y227568D01*
X738677Y227915D01*
X739325Y227687D01*
X739477Y227560D01*
Y212991D01*
X739325Y212864D01*
X738677Y212636D01*
X738225Y212983D01*
X737471Y213296D01*
X736661Y213402D01*
X735852Y213296D01*
X735098Y212983D01*
X734450Y212487D01*
X733954Y211839D01*
X733641Y211085D01*
X733535Y210276D01*
X733641Y209466D01*
X733954Y208712D01*
X734450Y208065D01*
X735098Y207568D01*
X735852Y207255D01*
X736661Y207149D01*
X737471Y207255D01*
X738225Y207568D01*
X738677Y207915D01*
X739325Y207687D01*
X739477Y207560D01*
Y107224D01*
X533059D01*
Y113064D01*
X533859Y113183D01*
X534014Y112672D01*
X534566Y111637D01*
X535310Y110731D01*
X536217Y109987D01*
X537251Y109434D01*
X538373Y109094D01*
X539540Y108979D01*
X545445D01*
X546612Y109094D01*
X547734Y109434D01*
X548769Y109987D01*
X549675Y110731D01*
X550419Y111637D01*
X550972Y112672D01*
X551312Y113794D01*
X551427Y114961D01*
Y120866D01*
X551312Y122033D01*
X550972Y123155D01*
X550419Y124189D01*
X549675Y125096D01*
X548769Y125840D01*
X547734Y126392D01*
X547031Y126606D01*
Y172621D01*
X556976Y182566D01*
X559797D01*
X560965Y182720D01*
X562054Y183171D01*
X562990Y183889D01*
X563707Y184824D01*
X563821Y185099D01*
X563908Y185125D01*
X564718Y184964D01*
X567671D01*
X568481Y185125D01*
X569168Y185584D01*
X569627Y186271D01*
X569788Y187081D01*
Y193577D01*
X569627Y194387D01*
X569168Y195074D01*
X568481Y195533D01*
X567671Y195694D01*
X564718D01*
X563908Y195533D01*
X563821Y195560D01*
X563707Y195835D01*
X562990Y196770D01*
X562054Y197487D01*
X560965Y197939D01*
X559797Y198092D01*
X556844D01*
X555676Y197939D01*
X554587Y197487D01*
X553652Y196770D01*
X552934Y195835D01*
X552483Y194746D01*
X552329Y193577D01*
Y190757D01*
X539283Y177711D01*
X538562Y176771D01*
X538108Y175676D01*
X537954Y174501D01*
Y126606D01*
X537251Y126392D01*
X536217Y125840D01*
X535310Y125096D01*
X534566Y124189D01*
X534014Y123155D01*
X533859Y122644D01*
X533059Y122763D01*
Y345138D01*
X548748D01*
X548800Y344338D01*
X548604Y344313D01*
X547911Y344025D01*
X547315Y343568D01*
X546859Y342973D01*
X546571Y342280D01*
X546473Y341536D01*
X546571Y340792D01*
X546859Y340099D01*
X547315Y339503D01*
X547911Y339046D01*
X548604Y338759D01*
X549348Y338661D01*
X550092Y338759D01*
X550785Y339046D01*
X551381Y339503D01*
X551837Y340099D01*
X551968Y340414D01*
X568978D01*
X591147Y318245D01*
Y295062D01*
X590429Y294793D01*
X590347Y294781D01*
X589769Y295225D01*
X589076Y295512D01*
X588332Y295610D01*
X587588Y295512D01*
X586894Y295225D01*
X586299Y294768D01*
X585842Y294173D01*
X585555Y293479D01*
X585457Y292735D01*
X585555Y291991D01*
X585842Y291298D01*
X586299Y290703D01*
X586894Y290246D01*
X587588Y289959D01*
X588332Y289861D01*
X588379Y289867D01*
X589179Y289165D01*
Y270222D01*
X588379Y269891D01*
X585317Y272953D01*
Y274981D01*
X580180D01*
Y270481D01*
X580180Y269844D01*
X580180D01*
Y269681D01*
X580180D01*
Y264544D01*
X580545Y264455D01*
Y260155D01*
X583273D01*
Y258605D01*
X583245D01*
Y251605D01*
X583273D01*
Y250005D01*
X583358Y249576D01*
X583602Y249212D01*
X583965Y248969D01*
X584395Y248883D01*
X609985D01*
X610414Y248969D01*
X610778Y249212D01*
X611021Y249576D01*
X611107Y250005D01*
Y251605D01*
X611135D01*
Y254881D01*
X611874Y255187D01*
X614000Y253062D01*
X614000Y253062D01*
X614363Y252819D01*
X614534Y252785D01*
X614686Y252418D01*
X615142Y251822D01*
X615738Y251365D01*
X616431Y251078D01*
X617175Y250980D01*
X617919Y251078D01*
X618612Y251365D01*
X619208Y251822D01*
X619665Y252418D01*
X619952Y253111D01*
X620050Y253855D01*
X619952Y254599D01*
X619665Y255292D01*
X619208Y255888D01*
X618612Y256344D01*
X617919Y256632D01*
X617175Y256730D01*
X616431Y256632D01*
X615738Y256344D01*
X615142Y255888D01*
X614395Y255839D01*
X612479Y257755D01*
X612510Y258555D01*
X613835D01*
Y262855D01*
X612493D01*
X611867Y263274D01*
Y267573D01*
X607170D01*
Y291112D01*
X607923Y291290D01*
X607970Y291284D01*
X608415Y290703D01*
X609011Y290246D01*
X609704Y289959D01*
X610448Y289861D01*
X611192Y289959D01*
X611885Y290246D01*
X612481Y290703D01*
X612937Y291298D01*
X613068Y291614D01*
X665584D01*
X703777Y253421D01*
Y228785D01*
X702398D01*
Y224485D01*
X702398D01*
X702317Y223873D01*
X702317D01*
X702317Y223719D01*
Y219573D01*
X702317D01*
Y219018D01*
X702317D01*
Y214718D01*
X707317D01*
Y219018D01*
X707318D01*
Y219573D01*
X707317D01*
Y223873D01*
X707318D01*
X707398Y224485D01*
X707398D01*
X707398Y224640D01*
Y228785D01*
X706020D01*
Y253885D01*
X706020Y253885D01*
X705934Y254315D01*
X705691Y254679D01*
X705691Y254679D01*
X666841Y293529D01*
X666477Y293772D01*
X666048Y293857D01*
X666048Y293857D01*
X613068D01*
X612937Y294173D01*
X612481Y294768D01*
X611885Y295225D01*
X611192Y295512D01*
X610448Y295610D01*
X609704Y295512D01*
X609011Y295225D01*
X608415Y294768D01*
X607970Y294187D01*
X607923Y294181D01*
X607170Y294359D01*
Y315345D01*
X621139Y329314D01*
X703448D01*
X703448Y329314D01*
X703877Y329399D01*
X704241Y329642D01*
X715013Y340414D01*
X720567D01*
X720698Y340099D01*
X721155Y339503D01*
X721750Y339046D01*
X722443Y338759D01*
X723187Y338661D01*
X723931Y338759D01*
X724625Y339046D01*
X725220Y339503D01*
X725677Y340099D01*
X725964Y340792D01*
X726062Y341536D01*
X725964Y342280D01*
X725677Y342973D01*
X725220Y343568D01*
X724625Y344025D01*
X723931Y344313D01*
X723735Y344338D01*
X723788Y345138D01*
X739477D01*
Y326502D01*
D02*
G37*
%LPC*%
G36*
X637698Y264285D02*
X633398D01*
Y260602D01*
X632598Y261013D01*
Y264285D01*
X628298D01*
Y259285D01*
X629326D01*
Y256279D01*
X629129Y256128D01*
X628672Y255533D01*
X628385Y254839D01*
X628287Y254095D01*
X628373Y253444D01*
X628161Y253178D01*
X627729Y252845D01*
X627519Y252932D01*
X626775Y253029D01*
X626470Y253297D01*
Y259285D01*
X627498D01*
Y264285D01*
X623198D01*
Y259285D01*
X624227D01*
Y251582D01*
X624227Y251582D01*
X624244Y251493D01*
X623998Y250899D01*
X623901Y250155D01*
X623974Y249599D01*
X623630Y249077D01*
X623369Y248840D01*
X620871D01*
Y248869D01*
X613871D01*
Y246569D01*
Y242632D01*
Y238998D01*
X593856D01*
X593856Y238998D01*
X593427Y238912D01*
X593063Y238669D01*
X592747Y238800D01*
X592003Y238898D01*
X591259Y238800D01*
X590566Y238513D01*
X589970Y238056D01*
X589514Y237461D01*
X589226Y236768D01*
X589129Y236024D01*
X589226Y235280D01*
X589514Y234586D01*
X589970Y233991D01*
X590566Y233534D01*
X591259Y233247D01*
X592003Y233149D01*
X592747Y233247D01*
X593440Y233534D01*
X594036Y233991D01*
X594493Y234586D01*
X594780Y235280D01*
X594878Y236024D01*
X594861Y236153D01*
X595388Y236755D01*
X613871D01*
Y232789D01*
Y228852D01*
Y224915D01*
Y220978D01*
Y217041D01*
X615409D01*
X615592Y216643D01*
X615629Y216241D01*
X615142Y215868D01*
X614686Y215273D01*
X614398Y214579D01*
X614300Y213835D01*
X614398Y213091D01*
X614686Y212398D01*
X615142Y211803D01*
X615738Y211346D01*
X616431Y211059D01*
X617175Y210961D01*
X617919Y211059D01*
X618612Y211346D01*
X619208Y211803D01*
X619665Y212398D01*
X619783Y212683D01*
X619844D01*
X619844Y212683D01*
X620273Y212769D01*
X620637Y213012D01*
X621966Y214341D01*
X625030D01*
Y219038D01*
X625893D01*
Y216310D01*
X630193D01*
Y221007D01*
X643441D01*
X645452Y218995D01*
X645321Y218679D01*
X645223Y217935D01*
X645321Y217191D01*
X645609Y216498D01*
X646065Y215903D01*
X646661Y215446D01*
X647354Y215159D01*
X648098Y215061D01*
X648842Y215159D01*
X649535Y215446D01*
X650131Y215903D01*
X650588Y216498D01*
X650875Y217191D01*
X650973Y217935D01*
X650875Y218679D01*
X650588Y219373D01*
X651243Y219782D01*
X652863Y218162D01*
Y166987D01*
X652863Y166987D01*
X652948Y166558D01*
X653191Y166194D01*
X687708Y131678D01*
X687708Y131678D01*
X688071Y131435D01*
X688501Y131349D01*
X688501Y131349D01*
X718935D01*
Y128524D01*
X725450D01*
Y131084D01*
Y133642D01*
Y136202D01*
Y138976D01*
X719665D01*
X709980Y148661D01*
X710287Y149400D01*
X711277D01*
Y161230D01*
X705595D01*
Y171841D01*
X705687D01*
Y178159D01*
X701731D01*
Y176046D01*
X699441D01*
Y176660D01*
X695141D01*
Y176046D01*
X690277D01*
Y176728D01*
X686715D01*
Y174688D01*
X686610Y174160D01*
X686715Y173631D01*
Y171591D01*
X690277D01*
Y172274D01*
X695141D01*
Y171660D01*
X699441D01*
Y172274D01*
X701731D01*
Y171841D01*
X701822D01*
Y159134D01*
X701966Y158412D01*
X702375Y157800D01*
X703778Y156397D01*
Y149400D01*
X706151D01*
Y149167D01*
X706256Y148641D01*
X706554Y148194D01*
X717797Y136951D01*
X717465Y136152D01*
X690482D01*
X657074Y169559D01*
Y220341D01*
X656989Y220770D01*
X656746Y221134D01*
X656746Y221134D01*
X651567Y226313D01*
X651259Y226985D01*
Y230703D01*
X651332Y230798D01*
X651619Y231491D01*
X651717Y232235D01*
X651619Y232979D01*
X651332Y233673D01*
X650875Y234268D01*
X650279Y234725D01*
X649586Y235012D01*
X648842Y235110D01*
X648098Y235012D01*
X647405Y234725D01*
X646809Y234268D01*
X646353Y233673D01*
X646065Y232979D01*
X645967Y232235D01*
X646065Y231491D01*
X646259Y231025D01*
Y227187D01*
X644959D01*
Y231285D01*
X641197D01*
X640981Y231568D01*
X640385Y232025D01*
X639692Y232312D01*
X638948Y232410D01*
X638204Y232312D01*
X637511Y232025D01*
X636915Y231568D01*
X636459Y230973D01*
X636171Y230279D01*
X636073Y229535D01*
X635740Y229155D01*
X634618D01*
X634605Y229169D01*
X634274Y229955D01*
X634538Y230298D01*
X634825Y230991D01*
X634923Y231735D01*
X634825Y232479D01*
X634538Y233173D01*
X634081Y233768D01*
X633485Y234225D01*
X632792Y234512D01*
X632048Y234610D01*
X631304Y234512D01*
X630611Y234225D01*
X630015Y233768D01*
X629559Y233173D01*
X629271Y232479D01*
X629173Y231735D01*
X629175Y231725D01*
X628647Y231124D01*
X628412D01*
X627716Y231377D01*
Y236514D01*
X628417Y236755D01*
X638998D01*
Y235685D01*
X643998D01*
Y239985D01*
X638998D01*
Y238998D01*
X637328D01*
X636997Y239798D01*
X643188Y245990D01*
X643504Y245859D01*
X644248Y245761D01*
X644992Y245859D01*
X645685Y246146D01*
X645997Y246385D01*
X650598D01*
Y250685D01*
X646258D01*
X645685Y251125D01*
X644992Y251412D01*
X644248Y251510D01*
X643504Y251412D01*
X642811Y251125D01*
X642744Y251074D01*
X641970Y251488D01*
Y253435D01*
X642998D01*
Y258435D01*
X639081D01*
X638698Y258435D01*
X638218Y259037D01*
X638037Y259473D01*
X637698Y259915D01*
Y264285D01*
D02*
G37*
G36*
X578017Y259581D02*
X572880D01*
Y254444D01*
X578017D01*
Y254797D01*
X578707Y255093D01*
X579308Y254606D01*
Y251605D01*
X581608D01*
Y258605D01*
X579308D01*
Y258605D01*
X578550Y258134D01*
X578017Y258667D01*
Y259581D01*
D02*
G37*
G36*
X566917Y254481D02*
X561779D01*
Y249344D01*
Y246235D01*
X561040Y245929D01*
X560141Y246829D01*
X559777Y247072D01*
X559348Y247157D01*
X559348Y247157D01*
X550148D01*
X550148Y247157D01*
X549719Y247072D01*
X549355Y246829D01*
X549355Y246829D01*
X538346Y235819D01*
X538102Y235455D01*
X538017Y235026D01*
X538017Y235026D01*
Y224824D01*
X537701Y224693D01*
X537106Y224236D01*
X536649Y223641D01*
X536362Y222947D01*
X536264Y222203D01*
X536362Y221459D01*
X536649Y220766D01*
X537106Y220171D01*
X537198Y220100D01*
Y216055D01*
X541498D01*
Y218942D01*
X542211Y219152D01*
X542262Y219156D01*
X542344Y218809D01*
X542631Y218116D01*
X542898Y217768D01*
Y213662D01*
X547198D01*
Y217579D01*
X547610Y218116D01*
X547897Y218809D01*
X547995Y219553D01*
X547897Y220297D01*
X547888Y220319D01*
X548418Y221007D01*
X552488D01*
X552820Y220207D01*
X552162Y219549D01*
X551847Y219680D01*
X551103Y219778D01*
X550359Y219680D01*
X549665Y219393D01*
X549070Y218936D01*
X548613Y218341D01*
X548326Y217647D01*
X548228Y216903D01*
X548326Y216159D01*
X548613Y215466D01*
X548953Y215024D01*
Y210685D01*
X553253D01*
Y215024D01*
X553592Y215466D01*
X553879Y216159D01*
X553977Y216903D01*
X553879Y217647D01*
X553748Y217963D01*
X554823Y219038D01*
X569571D01*
Y217041D01*
X571950D01*
Y208425D01*
X571150Y207839D01*
X570843Y207879D01*
X570099Y207782D01*
X569405Y207494D01*
X568810Y207038D01*
X568353Y206442D01*
X568066Y205749D01*
X567968Y205005D01*
X568066Y204261D01*
X568353Y203568D01*
X568810Y202972D01*
X569405Y202516D01*
X570099Y202228D01*
X570843Y202130D01*
X571587Y202228D01*
X572280Y202516D01*
X572722Y202855D01*
X577276D01*
Y205569D01*
X578656Y206949D01*
X579308Y207305D01*
Y207305D01*
X579308Y207305D01*
X581608D01*
Y214305D01*
X579308D01*
Y210432D01*
X579033Y210377D01*
X578669Y210134D01*
X578669Y210134D01*
X575690Y207155D01*
X574193D01*
Y217041D01*
X576571D01*
Y219010D01*
Y222947D01*
Y226884D01*
Y230821D01*
Y234758D01*
Y239026D01*
X569571D01*
Y237029D01*
X567877D01*
X567877Y237029D01*
X567448Y236944D01*
X567354Y236881D01*
X562380D01*
Y231744D01*
X562393D01*
Y228004D01*
X562380D01*
Y223250D01*
X547695D01*
X547695Y223250D01*
X547266Y223164D01*
X546902Y222921D01*
X546902Y222921D01*
X546180Y222199D01*
X545865Y222330D01*
X545121Y222428D01*
X544377Y222330D01*
X543683Y222043D01*
X543088Y221586D01*
X542631Y220991D01*
X542503Y220681D01*
X541648Y220708D01*
X541628Y220766D01*
X541915Y221459D01*
X542013Y222203D01*
X541915Y222947D01*
X541628Y223641D01*
X541171Y224236D01*
X540576Y224693D01*
X540260Y224824D01*
Y234561D01*
X550613Y244914D01*
X555640D01*
X555911Y244114D01*
X555591Y243868D01*
X555134Y243273D01*
X554847Y242579D01*
X554749Y241835D01*
X554847Y241091D01*
X555134Y240398D01*
X555591Y239803D01*
X556093Y239418D01*
Y236695D01*
X561093D01*
Y240692D01*
X569571D01*
Y240663D01*
X576571D01*
Y244600D01*
Y248869D01*
X571521D01*
X567684Y252706D01*
X567320Y252949D01*
X566917Y253029D01*
Y254481D01*
D02*
G37*
G36*
X604080Y216527D02*
X596206D01*
X595776Y216441D01*
X595413Y216198D01*
X595169Y215834D01*
X595084Y215405D01*
Y214305D01*
X589150D01*
Y207305D01*
X593116D01*
Y201164D01*
X589024Y197072D01*
X588780Y196708D01*
X588695Y196279D01*
X588213Y195669D01*
X587530Y195533D01*
X586843Y195074D01*
X586384Y194387D01*
X586287Y193901D01*
X585472D01*
X585375Y194387D01*
X584916Y195074D01*
X584229Y195533D01*
X583419Y195694D01*
X580466D01*
X579656Y195533D01*
X578969Y195074D01*
X578510Y194387D01*
X578349Y193577D01*
Y187081D01*
X578510Y186271D01*
X578969Y185584D01*
X579656Y185125D01*
X580466Y184964D01*
X583419D01*
X584229Y185125D01*
X584916Y185584D01*
X585375Y186271D01*
X585472Y186758D01*
X586287D01*
X586384Y186271D01*
X586843Y185584D01*
X587530Y185125D01*
X588340Y184964D01*
X591293D01*
X592103Y185125D01*
X592790Y185584D01*
X593249Y186271D01*
X593346Y186758D01*
X594162D01*
X594258Y186271D01*
X594717Y185584D01*
X595404Y185125D01*
X596214Y184964D01*
X599167D01*
X599977Y185125D01*
X600664Y185584D01*
X601123Y186271D01*
X601220Y186758D01*
X602036D01*
X602132Y186271D01*
X602591Y185584D01*
X603278Y185125D01*
X604088Y184964D01*
X607041D01*
X607851Y185125D01*
X608538Y185584D01*
X608997Y186271D01*
X609158Y187081D01*
Y193577D01*
X609151Y193615D01*
X609888Y194009D01*
X614721Y189176D01*
Y140369D01*
X613578Y139226D01*
X599543D01*
X599543Y139226D01*
X599113Y139141D01*
X598750Y138898D01*
X598750Y138898D01*
X596898Y137046D01*
X596655Y136682D01*
X596569Y136253D01*
X596271Y136247D01*
X596214Y136246D01*
X595404Y136084D01*
X594717Y135626D01*
X594258Y134939D01*
X594162Y134452D01*
X593346D01*
X593249Y134939D01*
X592790Y135626D01*
X592103Y136084D01*
X591293Y136246D01*
X588340D01*
X587530Y136084D01*
X586843Y135626D01*
X586384Y134939D01*
X586287Y134452D01*
X585472D01*
X585375Y134939D01*
X584916Y135626D01*
X584229Y136084D01*
X583419Y136246D01*
X580466D01*
X579656Y136084D01*
X578969Y135626D01*
X578510Y134939D01*
X578413Y134452D01*
X577598D01*
X577501Y134939D01*
X577042Y135626D01*
X576355Y136084D01*
X575545Y136246D01*
X572592D01*
X571782Y136084D01*
X571095Y135626D01*
X570636Y134939D01*
X570539Y134452D01*
X569724D01*
X569627Y134939D01*
X569168Y135626D01*
X568481Y136084D01*
X567671Y136246D01*
X564718D01*
X563908Y136084D01*
X563221Y135626D01*
X562762Y134939D01*
X562601Y134129D01*
Y127632D01*
X562762Y126822D01*
X563221Y126136D01*
X563908Y125677D01*
X564718Y125515D01*
X567671D01*
X568481Y125677D01*
X569168Y126136D01*
X569627Y126822D01*
X569724Y127309D01*
X570539D01*
X570636Y126822D01*
X571095Y126136D01*
X571782Y125677D01*
X572592Y125515D01*
X575545D01*
X576355Y125677D01*
X577042Y126136D01*
X577501Y126822D01*
X577598Y127309D01*
X578413D01*
X578510Y126822D01*
X578969Y126136D01*
X579656Y125677D01*
X580466Y125515D01*
X583419D01*
X584229Y125677D01*
X584916Y126136D01*
X585375Y126822D01*
X585472Y127310D01*
X586287D01*
X586384Y126822D01*
X586843Y126136D01*
X587530Y125677D01*
X588340Y125515D01*
X591293D01*
X592103Y125677D01*
X592790Y126136D01*
X593249Y126822D01*
X593346Y127309D01*
X594162D01*
X594258Y126822D01*
X594717Y126136D01*
X595404Y125677D01*
X596214Y125515D01*
X599167D01*
X599977Y125677D01*
X600664Y126136D01*
X601123Y126822D01*
X601220Y127309D01*
X602036D01*
X602132Y126822D01*
X602591Y126136D01*
X603278Y125677D01*
X604088Y125515D01*
X607041D01*
X607851Y125677D01*
X608538Y126136D01*
X608997Y126822D01*
X609158Y127632D01*
Y129759D01*
X611363D01*
X611363Y129759D01*
X611792Y129844D01*
X612156Y130087D01*
X618936Y136867D01*
X618936Y136867D01*
X619179Y137231D01*
X619264Y137660D01*
X619264Y137660D01*
Y179376D01*
X619998Y179535D01*
Y179535D01*
X624298D01*
Y183235D01*
X624731Y183798D01*
X625018Y184491D01*
X625116Y185235D01*
X625018Y185979D01*
X624731Y186673D01*
X624274Y187268D01*
X623678Y187725D01*
X623584Y187764D01*
Y188302D01*
X624370Y188627D01*
X631355Y181642D01*
X631719Y181399D01*
X632148Y181314D01*
X632148Y181314D01*
X644528D01*
X644659Y180998D01*
X644998Y180556D01*
Y176685D01*
X649298D01*
Y180556D01*
X649638Y180998D01*
X649925Y181691D01*
X650023Y182435D01*
X649925Y183179D01*
X649638Y183873D01*
X649181Y184468D01*
X648585Y184925D01*
X647892Y185212D01*
X647148Y185310D01*
X646404Y185212D01*
X645711Y184925D01*
X645115Y184468D01*
X644659Y183873D01*
X644528Y183557D01*
X632613D01*
X609665Y206505D01*
X609996Y207305D01*
X611135D01*
Y207305D01*
X611675Y207529D01*
X618792Y200412D01*
X619156Y200169D01*
X619585Y200083D01*
X619585Y200083D01*
X630067D01*
X630085Y200070D01*
X630779Y199782D01*
X631523Y199685D01*
X632267Y199782D01*
X632960Y200070D01*
X633555Y200526D01*
X634012Y201122D01*
X634299Y201815D01*
X634397Y202559D01*
X634299Y203303D01*
X634012Y203996D01*
X633555Y204592D01*
X632960Y205048D01*
X632267Y205336D01*
X631523Y205434D01*
X630779Y205336D01*
X630085Y205048D01*
X629490Y204592D01*
X629033Y203996D01*
X628746Y203303D01*
X628648Y202559D01*
X628444Y202326D01*
X620050D01*
X611135Y211241D01*
Y214305D01*
X605201D01*
Y215405D01*
X605116Y215834D01*
X604873Y216198D01*
X604509Y216441D01*
X604080Y216527D01*
D02*
G37*
G36*
X587513Y214305D02*
X583245D01*
Y207305D01*
X583273D01*
Y203316D01*
X582811Y203125D01*
X582215Y202668D01*
X581998Y202385D01*
X578598D01*
Y198085D01*
X582957D01*
X583504Y197859D01*
X584248Y197761D01*
X584992Y197859D01*
X585685Y198146D01*
X586281Y198603D01*
X586737Y199198D01*
X587025Y199891D01*
X587123Y200635D01*
X587025Y201379D01*
X586737Y202073D01*
X586281Y202668D01*
X585685Y203125D01*
X585516Y203195D01*
Y207305D01*
X587513D01*
Y214305D01*
D02*
G37*
G36*
X710687Y199813D02*
X706731D01*
Y193494D01*
X710687D01*
Y199813D01*
D02*
G37*
G36*
X717902Y191201D02*
X704514D01*
X704055Y191010D01*
X703865Y190551D01*
Y181101D01*
X704055Y180642D01*
X704514Y180452D01*
X717902D01*
X718361Y180642D01*
X718551Y181101D01*
Y190551D01*
X718361Y191010D01*
X717902Y191201D01*
D02*
G37*
G36*
X715687Y178159D02*
X711731D01*
Y171841D01*
X711822D01*
Y170501D01*
X710835D01*
Y166200D01*
X715835D01*
Y170501D01*
X715595D01*
Y171841D01*
X715687D01*
Y178159D01*
D02*
G37*
G36*
X686537Y168854D02*
X682975D01*
Y168841D01*
X679396D01*
X678937Y168650D01*
X678747Y168191D01*
Y152259D01*
X678937Y151800D01*
X679396Y151610D01*
X687096D01*
X687555Y151800D01*
X687745Y152259D01*
Y158941D01*
X687846D01*
Y163241D01*
X687745D01*
Y168191D01*
X687555Y168650D01*
X687096Y168841D01*
X686537D01*
Y168854D01*
D02*
G37*
G36*
X603006Y159424D02*
X569541Y159424D01*
Y149581D01*
X603006Y149581D01*
Y159424D01*
D02*
G37*
%LPD*%
G36*
X717902Y181101D02*
X704514D01*
Y190551D01*
X717902D01*
Y181101D01*
D02*
G37*
D11*
X630448Y268085D02*
D03*
Y261785D02*
D03*
X635548Y268085D02*
D03*
Y261785D02*
D03*
X625348Y268085D02*
D03*
Y261785D02*
D03*
X640848Y262235D02*
D03*
Y255935D02*
D03*
X647148Y172885D02*
D03*
Y179185D02*
D03*
X622148Y175735D02*
D03*
Y182035D02*
D03*
X551103Y206885D02*
D03*
Y213185D02*
D03*
X545048Y209862D02*
D03*
Y216162D02*
D03*
X539348Y212255D02*
D03*
Y218555D02*
D03*
X697291Y174160D02*
D03*
Y167860D02*
D03*
X628043Y218810D02*
D03*
Y212510D02*
D03*
X622880Y216841D02*
D03*
Y210541D02*
D03*
D19*
X707528Y149167D02*
Y155315D01*
Y149167D02*
X719106Y137589D01*
X722193D01*
D20*
X561043Y241813D02*
G03*
X558593Y239363I0J-2450D01*
G01*
X623174Y231971D02*
X625148Y233945D01*
X617371Y231971D02*
X623174D01*
X588332Y255105D02*
Y268352D01*
X584271Y272413D02*
X588332Y268352D01*
X582748Y272413D02*
X584271D01*
X582748Y267113D02*
X585578D01*
X586363Y266327D01*
Y255105D02*
Y266327D01*
X578550Y257013D02*
X580458Y255105D01*
X575448Y257013D02*
X578550D01*
X564348Y251913D02*
X566891D01*
X571085Y247719D01*
X573071D01*
X564348Y246913D02*
X565510Y245750D01*
X573071D01*
X564948Y225435D02*
X566287Y224097D01*
X573071D01*
X566195Y234225D02*
X567877Y235908D01*
X573071D01*
X609985Y255105D02*
Y260705D01*
X582343Y262407D02*
X583045Y261705D01*
X584395D01*
X561043Y241813D02*
X573071D01*
Y205005D02*
Y218191D01*
X539139Y222203D02*
Y235026D01*
X550148Y246035D01*
X559348D01*
X561602Y243782D01*
X573071D01*
X592269Y255105D02*
Y318709D01*
X569442Y341536D02*
X592269Y318709D01*
X549348Y341536D02*
X569442D01*
X594237Y255105D02*
Y334714D01*
X587415Y341536D02*
X594237Y334714D01*
X575782Y341536D02*
X587415D01*
X714548D02*
X723187D01*
X703448Y330435D02*
X714548Y341536D01*
X620675Y330435D02*
X703448D01*
X687548Y341536D02*
X707953D01*
X678948Y332935D02*
X687548Y341536D01*
X618210Y332935D02*
X678948D01*
X661848Y341536D02*
X681519D01*
X655548Y335235D02*
X661848Y341536D01*
X615148Y335235D02*
X655548D01*
X606048Y315809D02*
X620675Y330435D01*
X604080Y318805D02*
X618210Y332935D01*
X602111Y322199D02*
X615148Y335235D01*
X650984Y337435D02*
X655085Y341536D01*
X612348Y337435D02*
X650984D01*
X600143Y325230D02*
X612348Y337435D01*
X590300Y255105D02*
Y290767D01*
X588332Y292735D02*
X590300Y290767D01*
X610448Y292735D02*
X666048D01*
X704898Y253885D01*
Y226635D02*
Y253885D01*
X630315Y230002D02*
X632048Y231735D01*
X617371Y230002D02*
X630315D01*
X637446Y228034D02*
X638948Y229535D01*
X617371Y228034D02*
X637446D01*
X643905Y222128D02*
X648098Y217935D01*
X617371Y222128D02*
X643905D01*
X718709Y198659D02*
X722685Y202635D01*
X718709Y196653D02*
Y198659D01*
X713709Y199696D02*
X716648Y202635D01*
X713709Y196653D02*
Y199696D01*
X632148Y182435D02*
X647148D01*
X608017Y206567D02*
X632148Y182435D01*
X622241Y185235D02*
Y189442D01*
X606048Y205635D02*
X622241Y189442D01*
X608017Y206567D02*
Y210805D01*
X606048Y205635D02*
Y210805D01*
X618143Y137660D02*
Y190741D01*
X604080Y204804D02*
X618143Y190741D01*
X604080Y204804D02*
Y210805D01*
X615843Y139905D02*
Y189641D01*
X602111Y203372D02*
X615843Y189641D01*
X602111Y203372D02*
Y210805D01*
X619585Y201205D02*
X631480D01*
X609985Y210805D02*
X619585Y201205D01*
X630448Y254809D02*
X631162Y254095D01*
X630448Y254809D02*
Y261785D01*
X625348Y251582D02*
X626775Y250155D01*
X625348Y251582D02*
Y261785D01*
X638448Y248735D02*
X640848Y251135D01*
Y255935D01*
X641457Y237876D02*
X641498Y237835D01*
X617371Y237876D02*
X641457D01*
X592003Y236024D02*
X593856Y237876D01*
X617371D01*
Y239845D02*
X635457D01*
X617371Y241813D02*
X631526D01*
X584248Y200635D02*
X584395Y200782D01*
Y210805D01*
X551103Y216903D02*
X554359Y220160D01*
X573071D01*
X545121Y219553D02*
X547695Y222128D01*
X573071D01*
X631526Y241813D02*
X638448Y248735D01*
X635457Y239845D02*
X644248Y248635D01*
X635548Y258035D02*
X636048Y257535D01*
Y251235D02*
Y257535D01*
X628594Y243782D02*
X636048Y251235D01*
X617371Y243782D02*
X628594D01*
X631162Y248736D02*
Y254095D01*
X628176Y245750D02*
X631162Y248736D01*
X617371Y245750D02*
X628176D01*
X624339Y247719D02*
X626775Y250155D01*
X617371Y247719D02*
X624339D01*
X606048Y255105D02*
Y315809D01*
X604080Y255105D02*
Y318805D01*
X602111Y255105D02*
Y322199D01*
X600143Y255105D02*
Y325230D01*
X610848Y341536D02*
X628651D01*
X598174Y328861D02*
X610848Y341536D01*
X598174Y255105D02*
Y328861D01*
X596206Y335525D02*
X602216Y341536D01*
X596206Y255105D02*
Y335525D01*
X703709Y205349D02*
X711118Y212757D01*
X703709Y196653D02*
Y205349D01*
X711118Y212757D02*
Y216868D01*
X704817Y221723D02*
X704898Y221803D01*
Y226635D01*
X704817Y216868D02*
Y221723D01*
X688501Y132471D02*
X722193D01*
X653984Y166987D02*
X688501Y132471D01*
X653984Y166987D02*
Y218627D01*
X648514Y224097D02*
X653984Y218627D01*
X617371Y224097D02*
X648514D01*
X617371Y226065D02*
X650229D01*
X655953Y220341D01*
Y169095D02*
Y220341D01*
Y169095D02*
X690017Y135030D01*
X722193D01*
X614793Y253855D02*
X617175D01*
X611335Y257312D02*
X614793Y253855D01*
X589817Y196279D02*
X594237Y200699D01*
X617371Y220160D02*
X626843D01*
X584395Y250005D02*
X609985D01*
X598174Y190813D02*
Y210805D01*
X611363Y130880D02*
X618143Y137660D01*
X614043Y138105D02*
X615843Y139905D01*
X564893Y230002D02*
X573071D01*
X574776Y205005D02*
X575126D01*
X579462Y209341D01*
X596206Y215405D02*
X604080D01*
X619844Y213805D02*
X622880Y216841D01*
X621530Y218191D02*
X622880Y216841D01*
X597691Y190329D02*
X598174Y190813D01*
X599543Y138105D02*
X614043D01*
X597691Y136253D02*
X599543Y138105D01*
X605565Y130880D02*
X611363D01*
X684496Y154791D02*
X684756Y155051D01*
X597691Y130880D02*
Y136253D01*
X600143Y200054D02*
Y210805D01*
Y200054D02*
X605565Y194632D01*
X608017Y255105D02*
Y265423D01*
X584395Y250005D02*
Y255105D01*
Y261705D01*
X589817Y190329D02*
Y196279D01*
X596206Y210805D02*
Y215405D01*
X594237Y200699D02*
Y210805D01*
X604080D02*
Y215405D01*
X609985Y250005D02*
Y255105D01*
X611335Y257312D02*
Y260705D01*
X563843Y228952D02*
X564893Y230002D01*
X563843Y228652D02*
Y228952D01*
X580458Y209391D02*
Y210805D01*
X580408Y209341D02*
X580458Y209391D01*
X579462Y209341D02*
X580408D01*
X605565Y190329D02*
Y194632D01*
X609985Y260705D02*
X611335D01*
X608017Y265423D02*
X609367D01*
X617443Y213805D02*
X619844D01*
X617371Y218191D02*
X621530D01*
D21*
X709860Y207235D02*
X719448Y216824D01*
Y312635D01*
X729048Y322235D01*
X735748D01*
D22*
D03*
Y312635D02*
D03*
D23*
X736661Y220276D02*
D03*
Y230276D02*
D03*
Y210276D02*
D03*
D24*
X542493Y117913D02*
D03*
D25*
X620548Y268352D02*
D03*
X634248Y303135D02*
D03*
X543648Y312435D02*
D03*
X543848Y265135D02*
D03*
X544448Y200412D02*
D03*
X729348Y293035D02*
D03*
Y244435D02*
D03*
Y216903D02*
D03*
Y171035D02*
D03*
X554548Y118035D02*
D03*
X704248D02*
D03*
X629398D02*
D03*
X552348Y132435D02*
D03*
X601748Y178235D02*
D03*
X552348Y159635D02*
D03*
X584748Y221459D02*
D03*
X607248D02*
D03*
X634825Y211635D02*
D03*
X617175Y213835D02*
D03*
X588332Y292735D02*
D03*
X610448D02*
D03*
X648842Y232235D02*
D03*
X632048Y231735D02*
D03*
X638948Y229535D02*
D03*
X648098Y217935D02*
D03*
X722185Y202635D02*
D03*
X716648D02*
D03*
X647148Y182435D02*
D03*
X622241Y185235D02*
D03*
X584248Y200635D02*
D03*
X551103Y216903D02*
D03*
X545121Y219553D02*
D03*
X539139Y222203D02*
D03*
X557624Y241835D02*
D03*
X592003Y236024D02*
D03*
X644248Y248635D02*
D03*
X638448Y248735D02*
D03*
X635548Y258035D02*
D03*
X631162Y254095D02*
D03*
X626775Y250155D02*
D03*
X723187Y341536D02*
D03*
X707953D02*
D03*
X681519D02*
D03*
X655085D02*
D03*
X628651D02*
D03*
X602216D02*
D03*
X575782D02*
D03*
X549348D02*
D03*
X631523Y202559D02*
D03*
X617175Y253855D02*
D03*
X683346Y154791D02*
D03*
X566443Y188205D02*
D03*
X570843Y205005D02*
D03*
D26*
X625148Y233945D02*
D03*
X582748Y272413D02*
D03*
Y267113D02*
D03*
X575448Y257013D02*
D03*
X564348Y251913D02*
D03*
Y246913D02*
D03*
X564948Y234313D02*
D03*
Y225435D02*
D03*
D27*
X642459Y229135D02*
D03*
X648759D02*
D03*
X654398Y248535D02*
D03*
X648098D02*
D03*
X647798Y237835D02*
D03*
X641498D02*
D03*
X574798Y200235D02*
D03*
X581098D02*
D03*
X711198Y226635D02*
D03*
X704898D02*
D03*
X713335Y168351D02*
D03*
X719635D02*
D03*
X611335Y260705D02*
D03*
X617635D02*
D03*
X558593Y238845D02*
D03*
X564893D02*
D03*
Y229635D02*
D03*
X558593D02*
D03*
X711118Y221723D02*
D03*
X704817D02*
D03*
Y216868D02*
D03*
X711118D02*
D03*
X583045Y262305D02*
D03*
X576745D02*
D03*
X574776Y205005D02*
D03*
X581076D02*
D03*
X609367Y265423D02*
D03*
X615667D02*
D03*
X685346Y161091D02*
D03*
X691646D02*
D03*
D28*
X718551Y155315D02*
D03*
X707528D02*
D03*
X698836Y207235D02*
D03*
X709860D02*
D03*
D29*
X713709Y196653D02*
D03*
X718709D02*
D03*
X708709D02*
D03*
X703709D02*
D03*
X713709Y175000D02*
D03*
X718709D02*
D03*
X708709D02*
D03*
X703709D02*
D03*
D30*
X722685Y120266D02*
D03*
Y144676D02*
D03*
D31*
X722193Y127353D02*
D03*
Y129912D02*
D03*
Y132471D02*
D03*
Y135030D02*
D03*
Y137589D02*
D03*
D32*
X732724Y117510D02*
D03*
Y127943D02*
D03*
Y136998D02*
D03*
Y147432D02*
D03*
D33*
X581943Y130880D02*
D03*
X589817D02*
D03*
X597691D02*
D03*
X605565D02*
D03*
X574069D02*
D03*
X566195D02*
D03*
X558321D02*
D03*
Y190329D02*
D03*
X566195D02*
D03*
X574069D02*
D03*
X581943D02*
D03*
X589817D02*
D03*
X597691D02*
D03*
X605565D02*
D03*
D34*
X692236Y166286D02*
D03*
X684756D02*
D03*
X688496Y174160D02*
D03*
D35*
X573071Y218191D02*
D03*
Y220160D02*
D03*
Y222128D02*
D03*
Y224097D02*
D03*
Y226065D02*
D03*
Y228034D02*
D03*
Y230002D02*
D03*
Y231971D02*
D03*
Y233939D02*
D03*
Y235908D02*
D03*
Y237876D02*
D03*
Y239845D02*
D03*
Y241813D02*
D03*
Y243782D02*
D03*
Y245750D02*
D03*
Y247719D02*
D03*
X617371D02*
D03*
Y245750D02*
D03*
Y243782D02*
D03*
Y241813D02*
D03*
Y239845D02*
D03*
Y237876D02*
D03*
Y235908D02*
D03*
Y233939D02*
D03*
Y231971D02*
D03*
Y230002D02*
D03*
Y228034D02*
D03*
Y226065D02*
D03*
Y224097D02*
D03*
Y222128D02*
D03*
Y220160D02*
D03*
Y218191D02*
D03*
D36*
X580458Y255105D02*
D03*
X582426D02*
D03*
X584395D02*
D03*
X586363D02*
D03*
X588332D02*
D03*
X590300D02*
D03*
X592269D02*
D03*
X594237D02*
D03*
X596206D02*
D03*
X598174D02*
D03*
X600143D02*
D03*
X602111D02*
D03*
X604080D02*
D03*
X606048D02*
D03*
X608017D02*
D03*
X609985D02*
D03*
Y210805D02*
D03*
X608017D02*
D03*
X606048D02*
D03*
X604080D02*
D03*
X602111D02*
D03*
X600143D02*
D03*
X598174D02*
D03*
X596206D02*
D03*
X594237D02*
D03*
X592269D02*
D03*
X590300D02*
D03*
X588332D02*
D03*
X586363D02*
D03*
X584395D02*
D03*
X582426D02*
D03*
X580458D02*
D03*
D37*
X542493Y174501D02*
X558321Y190329D01*
X542493Y117913D02*
Y174501D01*
D38*
X697291Y174160D02*
X702869D01*
X688496D02*
X697291D01*
X702869D02*
X703709Y175000D01*
X713709Y169095D02*
Y175000D01*
X703709Y159134D02*
X707528Y155315D01*
X703709Y159134D02*
Y175000D01*
D39*
X683246Y160225D02*
D03*
M02*
